<svg width="175" height="234" viewBox="0 0 175 234" fill="none" xmlns="http://www.w3.org/2000/svg">
<path fill-rule="evenodd" clip-rule="evenodd" d="M6.5 4H18.5V20H6.5V4ZM4.5 4C4.5 2.89543 5.39543 2 6.5 2H18.5C19.6046 2 20.5 2.89543 20.5 4V20C20.5 21.1046 19.6046 22 18.5 22H6.5C5.39543 22 4.5 21.1046 4.5 20V4ZM10.5 18H14.5V16H10.5V18Z" fill="#1686ED"/>
<path fill-rule="evenodd" clip-rule="evenodd" d="M47.5 4H35.5V20H47.5V18H49.5V20C49.5 21.1046 48.6046 22 47.5 22H35.5C34.3954 22 33.5 21.1046 33.5 20V4C33.5 2.89543 34.3954 2 35.5 2H47.5C48.6046 2 49.5 2.89543 49.5 4V8H47.5V4ZM47.5 12V10H49.5V12H51.5V14H49.5V16H47.5V14H45.5V12H47.5ZM43.5 18H39.5V16H43.5V18Z" fill="#1686ED"/>
<path fill-rule="evenodd" clip-rule="evenodd" d="M64.503 5H80.497C81.0276 5.00198 81.5359 5.21367 81.9111 5.58892C82.2863 5.96417 82.498 6.47255 82.5 7.00323V16.9968C82.498 17.5274 82.2863 18.0358 81.9111 18.4111C81.5359 18.7863 81.0276 18.998 80.497 19H64.503C63.9724 18.998 63.4641 18.7863 63.0889 18.4111C62.7137 18.0358 62.502 17.5274 62.5 16.9968V7.00323C62.502 6.47255 62.7137 5.96417 63.0889 5.58892C63.4641 5.21367 63.9724 5.00198 64.503 5ZM80.497 9.02151V7.00323H64.503V9.02151H80.497ZM64.503 11.0247V16.9968H80.497V11.0247H64.503ZM74.5 13H78.5V15H74.5V13Z" fill="#1686ED"/>
<path fill-rule="evenodd" clip-rule="evenodd" d="M110.5 13V18H103.5V14.2741C104.509 15.0402 105.996 15.9812 108.094 16.9138L108.906 15.0862C107.244 14.3475 106.019 13.6148 105.146 13H105.9H110.5ZM101.5 10.8571C101.5 9.83147 100.669 9 99.6429 9C99.0117 9 98.5 9.51167 98.5 10.1429V10.4C98.5 10.7314 98.7686 11 99.1 11H101.5V10.8571ZM96.5696 11C96.5241 10.8074 96.5 10.6065 96.5 10.4V10.1429C96.5 8.4071 97.9071 7 99.6429 7C100.316 7 100.949 7.1725 101.5 7.47571V6L94.5 6L94.5 11H96.5696ZM99.1 13H94.5L94.5 18L101.5 18V14.2741C100.491 15.0402 99.0045 15.9812 96.9061 16.9138L96.0939 15.0862C97.756 14.3475 98.9811 13.6148 99.8542 13H99.1ZM103.5 11H105.9C106.231 11 106.5 10.7314 106.5 10.4V10.1429C106.5 9.51167 105.988 9 105.357 9C104.331 9 103.5 9.83147 103.5 10.8571V11ZM108.5 10.4C108.5 10.6065 108.476 10.8074 108.43 11H110.5V6L103.5 6V7.47571C104.051 7.1725 104.684 7 105.357 7C107.093 7 108.5 8.4071 108.5 10.1429V10.4ZM110.5 4C111.605 4 112.5 4.89543 112.5 6V18C112.5 19.1046 111.605 20 110.5 20L94.5 20C93.3954 20 92.5 19.1046 92.5 18V6C92.5 4.89543 93.3954 4 94.5 4H110.5Z" fill="#1686ED"/>
<path fill-rule="evenodd" clip-rule="evenodd" d="M133.611 5.33706C133.282 5.1173 132.896 5 132.5 5C131.97 5.00198 131.463 5.21334 131.088 5.58798C130.713 5.96262 130.502 6.47018 130.5 7C130.5 7.39557 130.617 7.78224 130.837 8.11114C131.057 8.44004 131.369 8.69639 131.735 8.84776C132.1 8.99914 132.502 9.03874 132.89 8.96157C133.278 8.8844 133.635 8.69392 133.914 8.41422C134.194 8.13451 134.384 7.77814 134.462 7.39018C134.539 7.00222 134.499 6.60008 134.348 6.23463C134.196 5.86918 133.94 5.55682 133.611 5.33706ZM130.278 3.67413C130.936 3.2346 131.709 3 132.5 3C133.561 3 134.578 3.42143 135.328 4.17158C136.079 4.92172 136.5 5.93914 136.5 7C136.5 7.79113 136.265 8.56448 135.826 9.22228C135.386 9.88007 134.762 10.3928 134.031 10.6955C133.3 10.9983 132.496 11.0775 131.72 10.9231C130.944 10.7688 130.231 10.3878 129.672 9.82843C129.112 9.26902 128.731 8.55628 128.577 7.78036C128.423 7.00443 128.502 6.20018 128.804 5.46927C129.107 4.73837 129.62 4.11365 130.278 3.67413ZM125.855 20.9986H139.062C139.378 21.0094 139.693 20.9582 139.987 20.8482C140.282 20.7381 140.551 20.5714 140.779 20.358C141.006 20.1445 141.187 19.8887 141.311 19.6057C141.435 19.3227 141.499 19.0183 141.5 18.7106C141.5 15.0117 137.472 12 132.5 12C127.528 12 123.5 15.0117 123.5 18.7106C123.502 19.3181 123.751 19.9 124.192 20.3289C124.634 20.7578 125.232 20.9986 125.855 20.9986ZM125.458 18.7033C125.458 16.0717 128.592 13.9371 132.44 13.9371C136.287 13.9371 139.415 16.0717 139.415 18.7033C139.415 18.7944 139.378 18.8818 139.312 18.9462C139.246 19.0106 139.156 19.0468 139.062 19.0468H125.817C125.771 19.0478 125.724 19.0396 125.68 19.0228C125.637 19.006 125.597 18.9808 125.563 18.9488C125.53 18.9168 125.503 18.8786 125.485 18.8364C125.467 18.7943 125.457 18.749 125.458 18.7033Z" fill="#1686ED"/>
<path fill-rule="evenodd" clip-rule="evenodd" d="M160.482 10C161.175 10 161.851 9.79473 162.427 9.41015C163.002 9.02556 163.451 8.47894 163.716 7.8394C163.981 7.19986 164.05 6.49611 163.915 5.81718C163.78 5.13825 163.447 4.51461 162.957 4.02512C162.468 3.53564 161.844 3.2023 161.165 3.06725C160.486 2.93221 159.783 3.00151 159.143 3.26642C158.503 3.53132 157.957 3.97993 157.572 4.55551C157.188 5.13108 156.982 5.80777 156.982 6.50001C156.982 7.42826 157.351 8.3185 158.008 8.97487C158.664 9.63125 159.554 10 160.482 10ZM160.482 5.00215C160.78 5.00215 161.071 5.09044 161.319 5.25586C161.566 5.42127 161.759 5.65637 161.873 5.93145C161.987 6.20652 162.017 6.5092 161.959 6.80121C161.901 7.09323 161.757 7.36146 161.547 7.57199C161.336 7.78252 161.068 7.92589 160.776 7.98397C160.484 8.04206 160.181 8.01226 159.906 7.89832C159.631 7.78438 159.396 7.59143 159.231 7.34387C159.065 7.09632 158.977 6.80526 158.977 6.50753C158.977 6.10828 159.136 5.72538 159.418 5.44306C159.7 5.16075 160.083 5.00215 160.482 5.00215ZM160.478 11C156.324 11 152.982 14.2256 152.982 16.8872V17.9925C152.982 18.7901 153.322 19.5551 153.926 20.1191C154.53 20.6831 155.349 21 156.203 21H164.762C165.616 21 166.435 20.6831 167.039 20.1191C167.643 19.5551 167.982 18.7901 167.982 17.9925V16.8947C167.966 14.2256 164.649 11 160.478 11ZM165.825 17.985C165.825 18.2482 165.713 18.5006 165.513 18.6868C165.314 18.8729 165.044 18.9774 164.762 18.9774H156.195C156.054 18.9774 155.915 18.9516 155.785 18.9013C155.655 18.8511 155.537 18.7774 155.438 18.6846C155.338 18.5917 155.259 18.4815 155.206 18.3601C155.152 18.2388 155.124 18.1088 155.124 17.9774V16.8722C155.124 15.3684 157.427 12.985 160.478 12.985C163.53 12.985 165.825 15.3459 165.825 16.8722V17.985ZM168.482 12.0355L172.018 8.5L170.604 7.08578L167.775 9.91421L166.361 8.5L164.947 9.91421L167.068 12.0355L167.775 12.7426L168.482 12.0355Z" fill="#1686ED"/>
<path fill-rule="evenodd" clip-rule="evenodd" d="M10.5 40C11.1922 40 11.8689 39.7947 12.4445 39.4101C13.0201 39.0256 13.4687 38.4789 13.7336 37.8394C13.9985 37.1999 14.0678 36.4961 13.9327 35.8172C13.7977 35.1382 13.4644 34.5146 12.9749 34.0251C12.4854 33.5356 11.8617 33.2023 11.1828 33.0673C10.5039 32.9322 9.80014 33.0015 9.1606 33.2664C8.52106 33.5313 7.97444 33.9799 7.58985 34.5555C7.20527 35.1311 7 35.8078 7 36.5C7 37.4283 7.36875 38.3185 8.02513 38.9749C8.6815 39.6313 9.57174 40 10.5 40ZM10.5 35.0022C10.7977 35.0022 11.0888 35.0904 11.3363 35.2559C11.5839 35.4213 11.7768 35.6564 11.8908 35.9314C12.0047 36.2065 12.0345 36.5092 11.9764 36.8012C11.9184 37.0932 11.775 37.3615 11.5645 37.572C11.3539 37.7825 11.0857 37.9259 10.7937 37.984C10.5017 38.0421 10.199 38.0123 9.92391 37.8983C9.64884 37.7844 9.41374 37.5914 9.24833 37.3439C9.08291 37.0963 8.99462 36.8053 8.99462 36.5075C8.99462 36.1083 9.15322 35.7254 9.43553 35.4431C9.71785 35.1608 10.1007 35.0022 10.5 35.0022ZM10.496 41C6.34139 41 3 44.2256 3 46.8872V47.9925C3 48.7901 3.33932 49.5551 3.9433 50.1191C4.54729 50.6831 5.36645 51 6.22061 51H14.7794C15.6335 51 16.4527 50.6831 17.0567 50.1191C17.6607 49.5551 18 48.7901 18 47.9925V46.8947C17.9839 44.2256 14.6667 41 10.496 41ZM15.8422 47.985C15.8422 48.2482 15.7302 48.5006 15.5309 48.6868C15.3316 48.8729 15.0613 48.9774 14.7794 48.9774H6.21256C6.07194 48.9774 5.93269 48.9516 5.80276 48.9013C5.67284 48.8511 5.5548 48.7774 5.45536 48.6846C5.35592 48.5917 5.27704 48.4815 5.22322 48.3601C5.16941 48.2388 5.14171 48.1088 5.14171 47.9774V46.8722C5.14171 45.3684 7.44445 42.985 10.496 42.985C13.5475 42.985 15.8422 45.3459 15.8422 46.8722V47.985ZM18 37V39H16V41H18V43H20V41H22V39H20V37H18Z" fill="#1686ED"/>
<path d="M52.162 46.4244L50.8237 43.5655C50.7007 43.2891 50.5348 43.0339 50.3322 42.8092C50.4319 42.5693 50.4858 42.3127 50.491 42.0529V35.0118C50.489 34.4788 50.2765 33.9683 49.8997 33.5914C49.523 33.2146 49.0126 33.002 48.4798 33H36.5408C36.008 33.002 35.4976 33.2146 35.1208 33.5914C34.7441 33.9683 34.5315 34.4788 34.5296 35.0118V42.0529C34.5309 42.3522 34.6007 42.6471 34.7337 42.9151C34.5897 43.0818 34.4654 43.2645 34.3632 43.4597L32.8888 46.3185C31.8454 48.3454 33.0249 51 34.9681 51H50.0298C51.9427 50.9924 53.1147 48.4513 52.162 46.4244ZM36.5408 35.0042H48.4798V42.0454H36.5408V35.0042ZM50.2717 48.7538C50.181 48.8975 50.0751 48.9807 50.0298 48.9807H34.9681C34.9152 48.9807 34.8093 48.8899 34.7186 48.7387C34.589 48.5091 34.5172 48.2515 34.5093 47.988C34.5014 47.7245 34.5576 47.463 34.6732 47.2261L36.1854 44.3672C36.314 44.1177 36.4501 44.0496 36.4728 44.0496H48.7217C48.7595 44.0496 48.9107 44.1479 49.0317 44.4126L50.3776 47.2714C50.4796 47.509 50.5232 47.7676 50.5048 48.0255C50.4864 48.2834 50.4065 48.5331 50.2717 48.7538Z" fill="#1686ED"/>
<path d="M79.4882 33H65.5118C64.9788 33.002 64.4683 33.2135 64.0914 33.5885C63.7146 33.9634 63.502 34.4714 63.5 35.0017V45.0025C63.502 45.5328 63.7146 46.0408 64.0914 46.4157C64.4683 46.7907 64.9788 47.0022 65.5118 47.0042H71.4261V48.9983H66.3966V51H78.4597V48.9983H73.4378V47.0042H79.4882C80.0212 47.0022 80.5317 46.7907 80.9086 46.4157C81.2854 46.0408 81.498 45.5328 81.5 45.0025V35.0017C81.498 34.4714 81.2854 33.9634 80.9086 33.5885C80.5317 33.2135 80.0212 33.002 79.4882 33ZM79.4882 35.0017V36.9958H74.9504L72.5378 40.3821L70.6093 37.1087L68.0076 41.0067H65.4966V34.9866L79.4882 35.0017ZM65.5345 45.0025V43.0084H69.1269L70.5412 40.8863L72.4168 44.0694L76.0319 38.9975H79.4882V45.0175L65.5345 45.0025Z" fill="#1686ED"/>
<path fill-rule="evenodd" clip-rule="evenodd" d="M101.521 51.5967C101.822 51.7667 102.161 51.8507 102.5 51.8507C102.839 51.8507 103.178 51.7657 103.48 51.5957L103.782 51.4257C108.543 48.7487 111.5 43.6917 111.5 38.2297V38.0847C111.5 37.3657 111.11 36.6977 110.48 36.3417L103.479 32.4037C102.876 32.0637 102.125 32.0647 101.52 32.4047L94.518 36.3427C93.89 36.6977 93.5 37.3657 93.5 38.0847V38.2297C93.5 43.6917 96.457 48.7487 101.218 51.4257L101.521 51.5967ZM95.5 38.0847L102.5 34.1467L109.5 38.0847V38.2297C109.5 42.9697 106.934 47.3587 102.802 49.6837L102.5 49.8537L102.198 49.6837C98.066 47.3587 95.5 42.9697 95.5 38.2297V38.0847ZM103.146 45.0964L108.096 40.1467L106.682 38.7325L102.439 42.9751L100.318 40.8538L98.9037 42.268L101.732 45.0964L102.439 45.8035L103.146 45.0964Z" fill="#1686ED"/>
<path fill-rule="evenodd" clip-rule="evenodd" d="M137.5 45C137.5 47.7614 135.261 50 132.5 50V52C135.671 52 138.35 49.8915 139.21 47H139.5C141.157 47 142.5 45.6569 142.5 44V43C142.5 41.3431 141.157 40 139.5 40V39C139.5 35.134 136.366 32 132.5 32C128.634 32 125.5 35.134 125.5 39V40C123.843 40 122.5 41.3431 122.5 43V44C122.5 45.6569 123.843 47 125.5 47H127.5V45V42V40V39C127.5 36.2386 129.739 34 132.5 34C135.261 34 137.5 36.2386 137.5 39L137.5 40L137.5 42V45ZM139.5 42V45C140.052 45 140.5 44.5523 140.5 44V43C140.5 42.4477 140.052 42 139.5 42ZM124.5 43C124.5 42.4477 124.948 42 125.5 42V45C124.948 45 124.5 44.5523 124.5 44V43Z" fill="#1686ED"/>
<path fill-rule="evenodd" clip-rule="evenodd" d="M170.5 51H172.5V49V35.5C172.5 34.1193 171.381 33 170 33H167C165.619 33 164.5 34.1193 164.5 35.5V38H161C159.619 38 158.5 39.1193 158.5 40.5V43H155C153.619 43 152.5 44.1193 152.5 45.5V49V51H154.5H158.5H160.5H164.5H166.5H170.5ZM166.5 49H168.5H170.5V47V35.5C170.5 35.2239 170.276 35 170 35H167C166.724 35 166.5 35.2239 166.5 35.5V38V40V47V49ZM164.5 40H162.5H161C160.724 40 160.5 40.2239 160.5 40.5V43V45V47V49H162.5H164.5V47V42V40ZM156.5 45H158.5V47V49H156.5H154.5V47V45.5C154.5 45.2239 154.724 45 155 45H156.5Z" fill="#1686ED"/>
<path d="M20.4917 64.5H4.50831C3.97628 64.502 3.46662 64.7139 3.09042 65.0895C2.71422 65.465 2.50199 65.9739 2.5 66.505V77.5025C2.502 78.033 2.71447 78.541 3.09088 78.9154C3.4673 79.2898 3.97698 79.5 4.50831 79.5H20.4917C21.023 79.5 21.5327 79.2898 21.9091 78.9154C22.2855 78.541 22.498 78.033 22.5 77.5025V66.505C22.498 65.9739 22.2858 65.465 21.9096 65.0895C21.5334 64.7139 21.0237 64.502 20.4917 64.5ZM19.3214 66.505L12.5 70.5L5.98056 66.505H19.3214ZM4.50831 77.5025V67.9523L12.5 72.8367L20.4917 68.1558V77.5025H4.50831Z" fill="#1686ED"/>
<path fill-rule="evenodd" clip-rule="evenodd" d="M47.5587 69.0321H48.4868C49.0207 69.0321 49.5328 69.2441 49.9103 69.6213C50.2879 69.9985 50.5 70.51 50.5 71.0435V79.9887C50.5 80.5221 50.2879 81.0337 49.9103 81.4109C49.5328 81.7881 49.0207 82 48.4868 82H36.5132C35.9793 82 35.4672 81.7881 35.0897 81.4109C34.7121 81.0337 34.5 80.5221 34.5 79.9887V71.0435C34.5 70.7793 34.5521 70.5178 34.6533 70.2738C34.7544 70.0297 34.9027 69.808 35.0897 69.6213C35.2766 69.4345 35.4986 69.2863 35.7428 69.1852C35.9871 69.0842 36.2489 69.0321 36.5132 69.0321H37.5V67.0208C37.5 65.6892 38.0295 64.4121 38.972 63.4705C39.9144 62.529 41.1927 62 42.5255 62C43.1861 61.999 43.8405 62.1281 44.4511 62.38C45.0617 62.6319 45.6166 63.0016 46.084 63.4679C46.5515 63.9342 46.9224 64.488 47.1754 65.0977C47.4284 65.7073 47.5587 66.3608 47.5587 67.0208V69.0321ZM40.3697 64.8821C39.8019 65.4493 39.483 66.2186 39.483 67.0208V69.0321H45.5378V67.0208C45.5378 66.2186 45.2189 65.4493 44.6511 64.8821C44.0834 64.3149 43.3133 63.9962 42.5104 63.9962C41.7075 63.9962 40.9374 64.3149 40.3697 64.8821ZM36.5132 79.9887H48.4868V71.0435H36.5132V79.9887ZM39.5107 74.2646L41.4786 76.223L45.2553 72.4498L46.6782 73.8714L41.4786 79.0661L38.0879 75.6861L39.5107 74.2646Z" fill="#1686ED"/>
<path d="M72.623 64.2822C71.1858 64.262 69.7628 64.5758 68.4614 65.2C67.1601 65.8243 66.0143 66.7426 65.1107 67.8857C64.207 69.0289 63.5689 70.367 63.2447 71.7991C62.9204 73.2312 62.9184 74.7199 63.2388 76.1529C63.3841 76.8039 63.7409 77.3853 64.2508 77.8023C64.7608 78.2192 65.3939 78.4471 66.0469 78.4488H70.046C70.2628 78.7749 70.5423 79.0525 70.8674 79.2644C71.1926 79.4764 71.5566 79.6183 71.9373 79.6816C72.0923 79.7083 72.2493 79.7206 72.4065 79.7185C72.8695 79.7154 73.3251 79.5984 73.7347 79.3774C74.1442 79.1564 74.4958 78.8379 74.7598 78.4488H78.961C79.6088 78.447 80.2372 78.2226 80.7451 77.8116C81.2531 77.4005 81.6112 76.8267 81.7618 76.1824C82.0767 74.7697 82.0794 73.303 81.7696 71.8891C81.4599 70.4753 80.8455 69.1499 79.9713 68.0097C79.097 66.8695 77.985 65.9432 76.7163 65.2984C75.4475 64.6535 74.0541 64.3063 72.6375 64.2822H72.623ZM73.3449 76.9354C73.3074 77.1642 73.1918 77.3721 73.0187 77.5221C72.8456 77.6721 72.6262 77.7545 72.3993 77.7548H72.2405C71.9898 77.7115 71.7662 77.5682 71.6187 77.3565C71.4712 77.1447 71.4118 76.8818 71.4536 76.6253C71.4868 76.3939 71.6009 76.1825 71.7748 76.0305C71.9486 75.8785 72.1705 75.7961 72.3993 75.7985H72.5581C72.6823 75.8208 72.8009 75.8679 72.9073 75.9371C73.0137 76.0063 73.1057 76.0963 73.1781 76.2018C73.2505 76.3074 73.3019 76.4265 73.3292 76.5524C73.3566 76.6782 73.3595 76.8084 73.3377 76.9354H73.3449ZM79.885 75.7468C79.8309 75.9576 79.7103 76.1442 79.542 76.2777C79.3736 76.4112 79.1668 76.4841 78.9538 76.4851H75.2506C75.1897 75.8668 74.9367 75.2847 74.5288 74.8241L76.3839 71.5316L74.7237 70.5497L72.854 73.8644C72.6956 73.8497 72.5361 73.8497 72.3776 73.8644C71.6986 73.8685 71.0427 74.1171 70.5252 74.5667C70.0077 75.0163 69.6616 75.638 69.5479 76.3227C69.5443 76.3891 69.5443 76.4556 69.5479 76.522H66.0397C65.8251 76.5239 65.616 76.4522 65.4459 76.3184C65.2758 76.1846 65.1545 75.9964 65.1012 75.7838C64.9775 75.2166 64.9146 74.6374 64.9136 74.0563C64.9093 72.098 65.6376 70.2122 66.9492 68.7854L67.635 70.0034L69.2953 69.0216L68.4362 67.4861C69.3472 66.9035 70.3679 66.5237 71.432 66.3713V68.2243H73.3521V66.2828C74.458 66.415 75.521 66.7984 76.4633 67.4049L75.5899 68.9625L77.2502 69.9444L77.972 68.6746C78.8349 69.6016 79.4604 70.7323 79.7929 71.9661C80.1254 73.2 80.1545 74.4987 79.8778 75.7468H79.885Z" fill="#1686ED"/>
<path d="M108.48 62H101.312C101.043 61.9997 100.777 62.0529 100.529 62.1563C100.281 62.2598 100.057 62.4114 99.8688 62.6022L95.0771 67.4497C94.8927 67.634 94.7468 67.8525 94.6478 68.0928C94.5488 68.333 94.4986 68.5903 94.5 68.8498V79.9977C94.502 80.5282 94.7155 81.0363 95.0939 81.4114C95.4722 81.7864 95.9849 81.998 96.52 82H108.48C109.015 81.998 109.528 81.7864 109.906 81.4114C110.285 81.0363 110.498 80.5282 110.5 79.9977V64.0023C110.498 63.4718 110.285 62.9637 109.906 62.5886C109.528 62.2136 109.015 62.002 108.48 62ZM100.507 64.8152V67.0056C100.507 67.1371 100.481 67.2673 100.43 67.3888C100.379 67.5102 100.305 67.6206 100.211 67.7136C100.117 67.8065 100.006 67.8803 99.8832 67.9306C99.7607 67.9809 99.6293 68.0068 99.4967 68.0068H97.3553L100.507 64.8152ZM108.48 79.9977H96.52V70.009H99.4967C100.302 70.009 101.075 69.6918 101.645 69.1272C102.214 68.5625 102.534 67.7967 102.534 66.9981V63.9872H108.488L108.48 79.9977Z" fill="#1686ED"/>
<path d="M136.538 81L127 72.0037L136.538 63L138 64.3875L129.94 72.0037L138 79.6125L136.538 81Z" fill="#1686ED"/>
<path d="M171.5 70.9958H163.497V63H161.496V70.9958H153.5V72.9967H161.496V81H163.497V72.9967H171.5V70.9958Z" fill="#1686ED"/>
<path d="M3.5 96H21.5M3.5 102H21.5M3.5 108H21.5" stroke="#1686ED" stroke-width="2"/>
<path d="M34.75 101.25L40.75 107.25L50.25 96.75" stroke="#1686ED" stroke-width="2"/>
<path d="M65.5 109L79.5 95M65.5 95L79.5 109" stroke="#1686ED" stroke-width="2"/>
<path fill-rule="evenodd" clip-rule="evenodd" d="M109.207 96.1465L105.207 92.1465L103.793 93.5607L106.086 95.8536H102.5C98.0817 95.8536 94.5 99.4353 94.5 103.854C94.5 108.272 98.0817 111.854 102.5 111.854C106.918 111.854 110.5 108.272 110.5 103.854H108.5C108.5 107.167 105.814 109.854 102.5 109.854C99.1863 109.854 96.5 107.167 96.5 103.854C96.5 100.54 99.1863 97.8536 102.5 97.8536H106.086L103.793 100.146L105.207 101.561L109.207 97.5607L109.914 96.8536L109.207 96.1465Z" fill="#1686ED"/>
<path fill-rule="evenodd" clip-rule="evenodd" d="M136.146 100.146C136.146 103.184 133.684 105.646 130.646 105.646C127.609 105.646 125.146 103.184 125.146 100.146C125.146 97.1089 127.609 94.6465 130.646 94.6465C133.684 94.6465 136.146 97.1089 136.146 100.146ZM135.196 106.11C133.934 107.074 132.357 107.646 130.646 107.646C126.504 107.646 123.146 104.289 123.146 100.146C123.146 96.0043 126.504 92.6465 130.646 92.6465C134.789 92.6465 138.146 96.0043 138.146 100.146C138.146 101.857 137.574 103.434 136.61 104.696L141.854 109.939L140.439 111.354L135.196 106.11Z" fill="#1686ED"/>
<path fill-rule="evenodd" clip-rule="evenodd" d="M168.5 94C167.395 94 166.5 94.8954 166.5 96C166.5 97.1046 167.395 98 168.5 98C169.605 98 170.5 97.1046 170.5 96C170.5 94.8954 169.605 94 168.5 94ZM164.5 96C164.5 93.7909 166.291 92 168.5 92C170.709 92 172.5 93.7909 172.5 96C172.5 98.2091 170.709 100 168.5 100C167.223 100 166.086 99.4017 165.354 98.4701L160.394 101.08C160.463 101.376 160.5 101.684 160.5 102C160.5 102.316 160.463 102.624 160.394 102.92L165.354 105.53C166.086 104.598 167.223 104 168.5 104C170.709 104 172.5 105.791 172.5 108C172.5 110.209 170.709 112 168.5 112C166.291 112 164.5 110.209 164.5 108C164.5 107.785 164.517 107.573 164.55 107.367L159.5 104.709V104.646C158.767 105.476 157.695 106 156.5 106C154.291 106 152.5 104.209 152.5 102C152.5 99.7909 154.291 98 156.5 98C157.695 98 158.767 98.5238 159.5 99.3542V99.2908L164.55 96.633C164.517 96.4268 164.5 96.2154 164.5 96ZM168.5 106C167.395 106 166.5 106.895 166.5 108C166.5 109.105 167.395 110 168.5 110C169.605 110 170.5 109.105 170.5 108C170.5 106.895 169.605 106 168.5 106ZM154.5 102C154.5 100.895 155.395 100 156.5 100C157.605 100 158.5 100.895 158.5 102C158.5 103.105 157.605 104 156.5 104C155.395 104 154.5 103.105 154.5 102Z" fill="#1686ED"/>
<path fill-rule="evenodd" clip-rule="evenodd" d="M22.2705 129.818L22.3608 130.345C22.5514 131.44 22.5514 132.56 22.3608 133.655L22.2705 134.182L20.126 135.153L20.9537 137.357L20.6452 137.794C19.9953 138.703 19.1995 139.499 18.29 140.149L17.8611 140.458L15.6564 139.63L14.6858 141.774L14.1591 141.865C13.0603 142.045 11.9395 142.045 10.8408 141.865L10.3141 141.774L9.3434 139.63L7.13873 140.458L6.70231 140.149C5.79508 139.499 5.0018 138.703 4.35467 137.794L4.04617 137.357L4.87385 135.153L2.72185 134.182L2.63908 133.655C2.44843 132.56 2.44843 131.44 2.63908 130.345L2.72185 129.818L4.87385 128.847L4.04617 126.643L4.35467 126.206C5.0018 125.297 5.79508 124.501 6.70231 123.851L7.13873 123.542L9.3434 124.37L10.3141 122.226L10.8408 122.135C11.9395 121.955 13.0603 121.955 14.1591 122.135L14.6858 122.226L15.6564 124.37L17.8611 123.542L18.29 123.851C19.2012 124.499 19.9973 125.295 20.6452 126.206L20.9537 126.643L20.126 128.847L22.2705 129.818ZM18.433 133.723L20.4571 132.813C20.489 132.545 20.5066 132.277 20.5097 132.008C20.5095 131.736 20.4944 131.465 20.4646 131.195L18.4781 130.299L18.3352 129.901C18.2674 129.72 18.1997 129.547 18.117 129.374L17.9439 128.99L18.6963 126.959C18.3485 126.538 17.9604 126.152 17.5376 125.807L15.5135 126.56L15.1297 126.379C14.9567 126.296 14.7761 126.229 14.5955 126.161L14.1967 126.018L13.3013 124.039C12.7633 123.986 12.2215 123.986 11.6835 124.039L10.7731 126.048L10.3818 126.191C10.2162 126.251 10.0582 126.319 9.90022 126.394L9.51647 126.575L7.44724 125.822C7.02264 126.166 6.63434 126.551 6.28846 126.974L7.08605 129.096L6.91299 129.472C6.8528 129.6 6.80013 129.735 6.74746 129.878L6.60449 130.277L4.52773 131.21V132.023V132.835L6.64211 133.783L6.7926 134.144C6.83775 134.265 6.89042 134.385 6.94309 134.498L7.11616 134.874L6.29598 137.049C6.64186 137.471 7.03016 137.857 7.45476 138.2L9.62934 137.38L10.0056 137.553L10.3442 137.696L10.7279 137.839L11.691 139.961C12.229 140.014 12.7708 140.014 13.3088 139.961L14.2494 137.869L14.6482 137.726L15.0319 137.568L15.4081 137.395L17.5451 138.2C17.9679 137.855 18.356 137.47 18.7039 137.049L17.9138 134.957L18.0944 134.573C18.1673 134.424 18.2326 134.271 18.29 134.114L18.433 133.723ZM10.2678 128.665C10.9274 128.225 11.7027 127.989 12.496 127.989C13.5596 127.989 14.5797 128.412 15.3318 129.164C16.084 129.916 16.5065 130.936 16.5065 132C16.5065 132.793 16.2713 133.569 15.8306 134.228C15.3899 134.888 14.7636 135.402 14.0307 135.705C13.2979 136.009 12.4915 136.088 11.7135 135.933C10.9356 135.779 10.221 135.397 9.66007 134.836C9.09919 134.275 8.71722 133.56 8.56247 132.782C8.40772 132.004 8.48715 131.198 8.7907 130.465C9.09424 129.732 9.60829 129.106 10.2678 128.665ZM11.3819 133.667C11.7112 133.888 12.0989 134.008 12.496 134.009C13.0295 134.009 13.5413 133.798 13.9192 133.421C14.2972 133.045 14.5105 132.534 14.5125 132C14.5125 131.603 14.3949 131.215 14.1745 130.885C13.954 130.554 13.6407 130.297 13.274 130.145C12.9074 129.992 12.5038 129.952 12.1143 130.029C11.7248 130.106 11.3668 130.297 11.0855 130.577C10.8043 130.857 10.6123 131.214 10.534 131.603C10.4556 131.993 10.4943 132.396 10.6452 132.764C10.7961 133.131 11.0525 133.445 11.3819 133.667Z" fill="#1686ED"/>
<path fill-rule="evenodd" clip-rule="evenodd" d="M47.4981 125.005H52.5V127.006H51.3868L50.5218 139.935C50.5218 141.071 49.3936 142.004 48.0021 142.004H37.0431C35.6591 142.004 34.5233 141.071 34.5233 139.935L33.6583 127.006H32.5V125.005H37.5921L39.638 121.996H45.4071L47.4981 125.005ZM44.3616 124.005H40.691L40.0141 125.005H45.0611L44.3616 124.005ZM48.5286 139.845V139.8L49.386 127.013H35.6666L36.5241 139.8V139.845C36.6739 139.956 36.8571 140.011 37.0431 140.003H48.0021C48.1901 140.01 48.3752 139.954 48.5286 139.845ZM37.5 130.996H39.5008V135.998H37.5V130.996ZM47.5008 130.996H45.5V135.998H47.5008V130.996ZM41.5 130.996H43.5008V135.998H41.5V130.996Z" fill="#1686ED"/>
<path fill-rule="evenodd" clip-rule="evenodd" d="M71.4895 136.998V126.851L68.0248 130.339L66.6119 128.917L72.4891 123L78.3739 128.917L76.9609 130.339L73.4887 126.851V136.998H71.4895ZM79.4858 137.974V133.986H81.5V137.974C81.5 138.776 81.1833 139.546 80.6195 140.114C80.0557 140.681 79.291 141 78.4937 141H66.5063C65.709 141 64.9443 140.681 64.3805 140.114C63.8167 139.546 63.5 138.776 63.5 137.974V133.986H65.4992V137.974C65.4992 138.24 65.6045 138.496 65.7919 138.685C65.9794 138.874 66.2336 138.98 66.4988 138.98H78.4862C78.7507 138.978 79.0038 138.871 79.1909 138.683C79.3779 138.495 79.4838 138.24 79.4858 137.974Z" fill="#1686ED"/>
<path fill-rule="evenodd" clip-rule="evenodd" d="M103.497 123L103.497 133.146L106.961 129.658L108.374 131.081L102.497 136.998L96.6123 131.081L98.0252 129.658L101.497 133.146L101.497 123H103.497ZM109.486 137.973V133.986H111.5V137.973C111.5 138.776 111.183 139.546 110.619 140.114C110.056 140.681 109.291 141 108.494 141H96.5063C95.709 141 94.9443 140.681 94.3805 140.114C93.8167 139.546 93.5 138.776 93.5 137.973V133.986H95.4992V137.973C95.4992 138.24 95.6045 138.496 95.7919 138.685C95.9794 138.874 96.2336 138.98 96.4988 138.98H108.486C108.751 138.978 109.004 138.871 109.191 138.683C109.378 138.495 109.484 138.24 109.486 137.973Z" fill="#1686ED"/>
<path fill-rule="evenodd" clip-rule="evenodd" d="M139.171 138.675C139.382 138.463 139.5 138.177 139.5 137.879V132H141.496V137.879C141.496 138.707 141.167 139.5 140.582 140.086C139.997 140.671 139.203 141 138.375 141H126.617C125.79 140.998 124.997 140.669 124.412 140.084C123.828 139.499 123.498 138.706 123.496 137.879V126.121C123.496 125.293 123.825 124.5 124.41 123.914C124.996 123.329 125.79 123 126.617 123H132.496V124.988H126.617C126.318 124.99 126.032 125.111 125.821 125.323C125.61 125.535 125.492 125.822 125.492 126.121V137.879C125.492 138.177 125.61 138.463 125.822 138.675C126.033 138.886 126.319 139.004 126.617 139.004H138.375C138.673 139.004 138.96 138.886 139.171 138.675ZM134.496 124.996V123H141.505V130H139.509V126.459L133.814 132.146L132.404 130.736L138.151 124.996H134.496Z" fill="#1686ED"/>
<path fill-rule="evenodd" clip-rule="evenodd" d="M154.489 124H170.512C170.775 124 171.035 124.052 171.279 124.153C171.522 124.253 171.743 124.401 171.929 124.587C172.115 124.773 172.262 124.994 172.363 125.237C172.464 125.48 172.515 125.741 172.515 126.004V137.996C172.514 138.527 172.302 139.036 171.926 139.411C171.551 139.786 171.043 139.998 170.512 140H154.489C153.958 139.998 153.45 139.786 153.074 139.411C152.699 139.036 152.487 138.527 152.485 137.996V125.996C152.487 125.466 152.699 124.958 153.075 124.584C153.45 124.21 153.959 124 154.489 124ZM170.512 135.721V125.996L154.489 125.981V130.9L155.566 129.868C155.879 129.563 156.255 129.329 156.667 129.183C157.08 129.038 157.519 128.983 157.954 129.024C158.381 129.064 158.795 129.193 159.168 129.405C159.541 129.617 159.864 129.906 160.116 130.252L161.909 132.783C161.962 132.866 162.036 132.932 162.124 132.974C162.211 133.017 162.309 133.034 162.406 133.024C162.504 133.023 162.599 132.996 162.682 132.946C162.766 132.895 162.834 132.824 162.881 132.738C163.088 132.385 163.376 132.087 163.722 131.867C164.067 131.647 164.46 131.513 164.867 131.474C165.275 131.436 165.686 131.495 166.066 131.647C166.446 131.799 166.785 132.038 167.054 132.347C167.087 132.383 167.118 132.418 167.146 132.45C167.235 132.549 167.306 132.628 167.386 132.708L170.512 135.721ZM156.952 131.33L154.489 133.702V138.004H170.015L166.007 134.162C165.864 134.019 165.736 133.876 165.615 133.733C165.552 133.652 165.471 133.588 165.378 133.546C165.284 133.504 165.182 133.486 165.08 133.492C164.989 133.499 164.9 133.53 164.823 133.579C164.745 133.629 164.681 133.697 164.636 133.778C164.417 134.15 164.108 134.462 163.738 134.684C163.368 134.907 162.947 135.033 162.516 135.051C162.084 135.069 161.655 134.978 161.267 134.787C160.88 134.596 160.546 134.312 160.297 133.959L158.527 131.458C158.441 131.336 158.329 131.235 158.198 131.163C158.067 131.092 157.922 131.051 157.773 131.043C157.624 131.029 157.473 131.047 157.332 131.096C157.19 131.146 157.06 131.225 156.952 131.33ZM168.381 130.262C168.133 130.428 167.842 130.516 167.544 130.516C167.144 130.516 166.761 130.357 166.479 130.075C166.196 129.792 166.037 129.409 166.037 129.009C166.037 128.711 166.126 128.42 166.291 128.172C166.457 127.925 166.692 127.731 166.967 127.617C167.243 127.503 167.546 127.474 167.838 127.532C168.13 127.59 168.399 127.733 168.609 127.944C168.82 128.155 168.963 128.423 169.022 128.715C169.08 129.008 169.05 129.311 168.936 129.586C168.822 129.861 168.629 130.096 168.381 130.262Z" fill="#1686ED"/>
<path fill-rule="evenodd" clip-rule="evenodd" d="M20.2631 157.578L10.4221 167.419C10.1682 167.654 9.81852 167.759 9.48337 167.844L4.75215 169.054C4.66925 169.066 4.58524 169.066 4.50234 169.054C4.36991 169.056 4.23854 169.031 4.11621 168.98C3.99388 168.929 3.88315 168.854 3.79076 168.759C3.66759 168.634 3.57912 168.479 3.534 168.309C3.48888 168.139 3.48867 167.96 3.53338 167.79L4.90355 162.59C4.90726 162.577 4.9109 162.564 4.91455 162.551C4.94064 162.459 4.96691 162.367 5.01859 162.287C5.05347 162.233 5.09351 162.182 5.13822 162.136L14.9792 152.295C15.168 152.106 15.4239 152 15.6908 152C15.9576 152 16.2136 152.106 16.4024 152.295L20.2631 156.155C20.4517 156.344 20.5576 156.6 20.5576 156.867C20.5576 157.134 20.4517 157.39 20.2631 157.578ZM18.098 156.867L15.6605 154.429L7.27295 162.84L9.71049 165.277L18.098 156.867ZM6.37213 164.762L5.88765 166.617L7.74986 166.14L6.37213 164.762ZM9.5 170H21.5V172H9.5V170Z" fill="#1686ED"/>
<path d="M35.5 169.494V153.5C35.5 152.948 35.9477 152.5 36.5 152.5H48.5C49.0523 152.5 49.5 152.948 49.5 153.5V169.494C49.5 170.319 48.5569 170.789 47.898 170.292L42.5 166.222L37.102 170.292C36.4431 170.789 35.5 170.319 35.5 169.494Z" stroke="#1686ED" stroke-width="2"/>
<path fill-rule="evenodd" clip-rule="evenodd" d="M69.4997 154.952C69.4997 153.296 70.8429 151.952 72.4997 151.952C74.1566 151.952 75.4997 153.296 75.4997 154.952V155.755C77.2931 156.792 78.4997 158.732 78.4997 160.952V163.149L80.2957 165.843C81.1817 167.172 80.229 168.952 78.6316 168.952H77.4997H76.1635C75.8688 170.709 74.341 172.048 72.5005 172.048C70.6601 172.048 69.1323 170.709 68.8376 168.952H67.4997H66.3686C64.7712 168.952 63.8184 167.172 64.7045 165.843L66.4997 163.15V160.952C66.4997 158.732 67.7063 156.792 69.4997 155.755V154.952ZM71.4997 155.035C71.8249 154.981 72.159 154.952 72.4997 154.952C72.8404 154.952 73.1745 154.981 73.4997 155.035V154.952C73.4997 154.4 73.052 153.952 72.4997 153.952C71.9474 153.952 71.4997 154.4 71.4997 154.952V155.035ZM72.4997 156.952C70.2906 156.952 68.4997 158.743 68.4997 160.952V163.453V163.756L68.3318 164.008L66.3686 166.952H67.4997H77.4997H78.6316L76.6677 164.007L76.4997 163.755V163.452V160.952C76.4997 158.743 74.7089 156.952 72.4997 156.952ZM72.5005 170.048C71.7721 170.048 71.1497 169.593 70.9014 168.952H74.0997C73.8514 169.593 73.229 170.048 72.5005 170.048Z" fill="#1686ED"/>
<path fill-rule="evenodd" clip-rule="evenodd" d="M92.5 156.054C92.5 154.397 93.8431 153.054 95.5 153.054H103.5C105.157 153.054 106.5 154.397 106.5 156.054V157.054H109.5C111.157 157.054 112.5 158.397 112.5 160.054V169.444C112.5 170.917 110.598 171.507 109.764 170.293L108.224 168.054H101.5C99.8431 168.054 98.5 166.71 98.5 165.054V164.054H97L95.2 166.454C94.3351 167.607 92.5 166.995 92.5 165.554V156.054ZM98.5 162.054V160.054C98.5 158.397 99.8431 157.054 101.5 157.054H104.5V156.054C104.5 155.501 104.052 155.054 103.5 155.054H95.5C94.9477 155.054 94.5 155.501 94.5 156.054V164.054L95.7 162.454L96 162.054H96.5H98.5ZM110.5 160.054C110.5 159.501 110.052 159.054 109.5 159.054H101.5C100.948 159.054 100.5 159.501 100.5 160.054V165.054C100.5 165.606 100.948 166.054 101.5 166.054H108.75H109.276L109.574 166.487L110.5 167.834V160.054Z" fill="#1686ED"/>
<path fill-rule="evenodd" clip-rule="evenodd" d="M136.953 155.349C135.637 154.469 134.09 154 132.508 154C130.387 154 128.353 154.842 126.853 156.34C125.353 157.839 124.51 159.872 124.508 161.992C124.506 163.575 124.974 165.123 125.852 166.439C126.73 167.756 127.979 168.782 129.441 169.389C130.903 169.996 132.511 170.155 134.064 169.847C135.616 169.539 137.042 168.778 138.162 167.66C139.281 166.541 140.044 165.116 140.353 163.563C140.663 162.011 140.505 160.403 139.899 158.94C139.294 157.478 138.269 156.228 136.953 155.349ZM126.949 153.682C128.595 152.584 130.529 151.999 132.508 152C135.157 152.002 137.698 153.055 139.571 154.929C141.445 156.802 142.498 159.343 142.5 161.992C142.501 163.971 141.916 165.905 140.818 167.551C139.72 169.197 138.158 170.48 136.33 171.237C134.503 171.995 132.491 172.194 130.551 171.808C128.61 171.423 126.828 170.47 125.429 169.071C124.03 167.672 123.077 165.89 122.692 163.949C122.306 162.009 122.505 159.997 123.263 158.17C124.02 156.342 125.303 154.78 126.949 153.682ZM126.771 162.804L131.162 167.203L138.064 160.301L136.65 158.887L131.162 164.376L128.184 161.391L126.771 162.804Z" fill="#1686ED"/>
<path fill-rule="evenodd" clip-rule="evenodd" d="M163.1 152.575L162.5 152.125L161.9 152.575L151.9 160.075L153.1 161.675L154.5 160.625V168.875C154.5 170.532 155.844 171.875 157.5 171.875H158.5H159.5H165.5H166.5H167.5C169.157 171.875 170.5 170.532 170.5 168.875V165.542V160.625L171.9 161.675L173.1 160.075L163.1 152.575ZM166.5 169.875H167.5C168.053 169.875 168.5 169.427 168.5 168.875V165.542V159.125L162.5 154.625L156.5 159.125V168.875C156.5 169.427 156.948 169.875 157.5 169.875H158.5V164.375C158.5 162.994 159.62 161.875 161 161.875H164C165.381 161.875 166.5 162.994 166.5 164.375V169.875ZM160.5 169.875H164.5V164.375C164.5 164.099 164.277 163.875 164 163.875H161C160.724 163.875 160.5 164.099 160.5 164.375V169.875Z" fill="#1686ED"/>
<path fill-rule="evenodd" clip-rule="evenodd" d="M17.5 185.326C17.5 184.536 16.6282 184.058 15.9625 184.482L13.0917 186.312C12.61 186.619 12.0506 186.782 11.4793 186.782H5.5C4.94771 186.782 4.5 187.23 4.5 187.782V193.709C4.5 194.261 4.94772 194.709 5.5 194.709H11.4953C12.0515 194.709 12.5968 194.863 13.0702 195.155L15.975 196.947C16.6413 197.358 17.5 196.879 17.5 196.096V185.326ZM14.8876 182.796C16.8847 181.523 19.5 182.957 19.5 185.326V187.679C21.1569 187.679 22.5 189.022 22.5 190.679C22.5 192.336 21.1569 193.679 19.5 193.679V196.096C19.5 198.444 16.9238 199.882 14.9251 198.649L12.0203 196.858C11.8625 196.76 11.6807 196.709 11.4953 196.709H10.9888L11.8799 198.936C12.4054 200.25 11.4379 201.679 10.023 201.679H8.17703C7.35922 201.679 6.62381 201.181 6.32008 200.422L4.80209 196.627C3.48182 196.312 2.5 195.125 2.5 193.709V187.782C2.5 186.125 3.84315 184.782 5.5 184.782H11.4793C11.6698 184.782 11.8562 184.728 12.0168 184.625L14.8876 182.796ZM6.9888 196.709L8.17703 199.679L10.023 199.679L8.83473 196.709H6.9888ZM20.5 190.679C20.5 191.232 20.0523 191.679 19.5 191.679V189.679C20.0523 189.679 20.5 190.127 20.5 190.679Z" fill="#1686ED"/>
<path fill-rule="evenodd" clip-rule="evenodd" d="M46.7654 185L38.2346 185L36.806 195H39.5V192C39.5 190.343 40.8431 189 42.5 189C44.1569 189 45.5 190.343 45.5 192V195H48.194L46.7654 185ZM45.5 197H43.5H41.5H39.5H36.5203H34.5V199H50.5V197H48.4797H45.5ZM43.5 195V192C43.5 191.448 43.0523 191 42.5 191C41.9477 191 41.5 191.448 41.5 192V195H43.5ZM36.2547 184.717L34.7857 195H34.5C33.3954 195 32.5 195.895 32.5 197V199C32.5 200.105 33.3954 201 34.5 201H50.5C51.6046 201 52.5 200.105 52.5 199V197C52.5 195.895 51.6046 195 50.5 195H50.2143L48.7453 184.717C48.6046 183.732 47.7607 183 46.7654 183H38.2346C37.2393 183 36.3954 183.732 36.2547 184.717Z" fill="#1686ED"/>
<path fill-rule="evenodd" clip-rule="evenodd" d="M81.9521 195.497L75.9835 184.46C75.6301 183.849 75.1221 183.342 74.5107 182.989C73.8993 182.637 73.2059 182.451 72.5 182.451C71.7942 182.451 71.1007 182.637 70.4893 182.989C69.8779 183.342 69.3699 183.849 69.0165 184.46L63.0479 195.497C62.6909 196.109 62.5018 196.805 62.5 197.514C62.4982 198.223 62.6836 198.92 63.0375 199.534C63.3914 200.148 63.9013 200.658 64.5155 201.012C65.1297 201.365 65.8264 201.551 66.5353 201.549H78.4647C79.1736 201.551 79.8703 201.365 80.4845 201.012C81.0987 200.658 81.6086 200.148 81.9625 199.534C82.3164 198.92 82.5018 198.223 82.5 197.514C82.4982 196.805 82.3091 196.109 81.9521 195.497ZM80.2122 198.523C80.0376 198.832 79.7833 199.088 79.476 199.265C79.1686 199.442 78.8194 199.533 78.4647 199.529H66.5353C66.1805 199.531 65.8317 199.439 65.524 199.262C65.2164 199.085 64.9609 198.83 64.7835 198.523C64.6061 198.216 64.5131 197.867 64.5139 197.513C64.5146 197.158 64.6091 196.81 64.7878 196.503L70.7866 185.444C70.965 185.144 71.2181 184.896 71.5211 184.724C71.8241 184.552 72.1666 184.462 72.5151 184.462C72.8636 184.462 73.2061 184.552 73.5091 184.724C73.8122 184.896 74.0653 185.144 74.2437 185.444L80.197 196.458C80.3877 196.767 80.4899 197.122 80.4925 197.485C80.4952 197.847 80.3982 198.204 80.2122 198.515V198.523ZM73.5122 187.451H71.5V194.494H73.5122V187.451ZM71.5 195.451H73.5122V197.463H71.5V195.451Z" fill="#1686ED"/>
<path fill-rule="evenodd" clip-rule="evenodd" d="M102.5 182C100.522 182 98.5882 182.587 96.9435 183.686C95.2989 184.785 94.0171 186.347 93.2605 188.175C92.5038 190.003 92.3062 192.014 92.6927 193.954C93.0792 195.894 94.0323 197.676 95.4316 199.074C96.8309 200.472 98.6134 201.424 100.554 201.809C102.494 202.194 104.505 201.995 106.332 201.237C108.159 200.479 109.72 199.196 110.818 197.55C111.916 195.905 112.501 193.971 112.5 191.992C112.498 189.342 111.444 186.8 109.568 184.926C107.693 183.053 105.151 182 102.5 182ZM102.5 199.992C100.918 199.992 99.371 199.523 98.0554 198.644C96.7398 197.765 95.7145 196.516 95.109 195.054C94.5035 193.592 94.345 191.984 94.6537 190.432C94.9624 188.88 95.7243 187.454 96.8432 186.336C97.962 185.217 99.3874 184.455 100.939 184.146C102.491 183.838 104.1 183.996 105.561 184.601C107.023 185.207 108.273 186.232 109.152 187.548C110.031 188.864 110.5 190.41 110.5 191.992C110.498 194.114 109.655 196.147 108.155 197.647C106.655 199.147 104.621 199.991 102.5 199.992ZM103.5 190H101.5V198H103.5V190ZM101.5 186H103.5V188H101.5V186Z" fill="#1686ED"/>
<path fill-rule="evenodd" clip-rule="evenodd" d="M132.5 184C134.083 183.999 135.631 184.467 136.947 185.345C138.264 186.224 139.291 187.473 139.897 188.935C140.504 190.397 140.663 192.006 140.354 193.559C140.046 195.111 139.284 196.538 138.164 197.657C137.045 198.776 135.619 199.538 134.066 199.847C132.514 200.155 130.905 199.996 129.443 199.39C127.98 198.783 126.731 197.757 125.853 196.44C124.974 195.123 124.506 193.575 124.508 191.992C124.511 189.874 125.355 187.843 126.853 186.345C128.351 184.847 130.381 184.004 132.5 184ZM132.5 182C130.522 182 128.588 182.587 126.944 183.686C125.299 184.785 124.017 186.347 123.26 188.175C122.504 190.003 122.306 192.014 122.693 193.954C123.079 195.894 124.032 197.676 125.432 199.074C126.831 200.472 128.613 201.424 130.554 201.809C132.494 202.194 134.505 201.995 136.332 201.237C138.159 200.479 139.72 199.196 140.818 197.55C141.916 195.905 142.501 193.971 142.5 191.992C142.498 189.342 141.444 186.8 139.568 184.926C137.693 183.053 135.151 182 132.5 182ZM133.5 195H131.5V193.662C131.499 193.151 131.652 192.652 131.939 192.229C132.226 191.807 132.634 191.481 133.109 191.293C133.398 191.182 133.651 190.994 133.841 190.75C134.031 190.506 134.151 190.214 134.188 189.907C134.224 189.599 134.176 189.288 134.048 189.006C133.92 188.724 133.718 188.482 133.463 188.306C133.207 188.131 132.909 188.029 132.6 188.011C132.291 187.992 131.983 188.059 131.709 188.203C131.435 188.347 131.205 188.563 131.045 188.828C130.885 189.093 130.801 189.397 130.801 189.707H128.801C128.801 189.033 128.985 188.372 129.333 187.795C129.681 187.218 130.18 186.747 130.776 186.433C131.372 186.119 132.043 185.974 132.715 186.013C133.388 186.053 134.037 186.275 134.593 186.656C135.148 187.037 135.589 187.563 135.868 188.176C136.147 188.79 136.253 189.468 136.174 190.137C136.096 190.806 135.836 191.441 135.423 191.974C135.01 192.506 134.46 192.915 133.831 193.158C133.732 193.2 133.648 193.27 133.589 193.359C133.53 193.449 133.499 193.554 133.5 193.662V195ZM131.5 196H133.5V198H131.5V196Z" fill="#1686ED"/>
<path fill-rule="evenodd" clip-rule="evenodd" d="M163.5 184H155.5C154.948 184 154.5 184.448 154.5 185V193C154.5 193.552 154.948 194 155.5 194H157.5V196H155.5C153.843 196 152.5 194.657 152.5 193V185C152.5 183.343 153.843 182 155.5 182H163.5C165.157 182 166.5 183.343 166.5 185V187H164.5V185C164.5 184.448 164.052 184 163.5 184ZM161.5 190H169.5C170.052 190 170.5 190.448 170.5 191V199C170.5 199.552 170.052 200 169.5 200H161.5C160.948 200 160.5 199.552 160.5 199V191C160.5 190.448 160.948 190 161.5 190ZM158.5 191C158.5 189.343 159.843 188 161.5 188H169.5C171.157 188 172.5 189.343 172.5 191V199C172.5 200.657 171.157 202 169.5 202H161.5C159.843 202 158.5 200.657 158.5 199V191ZM168.5 194H166.5V192H164.5V194H162.5V196H164.5V198H166.5V196H168.5V194Z" fill="#1686ED"/>
<path fill-rule="evenodd" clip-rule="evenodd" d="M9.5 212H7.5V214H5.5C4.39543 214 3.5 214.895 3.5 216V230C3.5 231.105 4.39543 232 5.5 232H19.5C20.6046 232 21.5 231.105 21.5 230V216C21.5 214.895 20.6046 214 19.5 214H17.5V212H15.5V214H9.5V212ZM5.5 216H19.5V219H5.5V216ZM5.5 221H19.5V230H5.5L5.5 221Z" fill="#1686ED"/>
<path fill-rule="evenodd" clip-rule="evenodd" d="M37.5 213H35.5V215.171C34.3348 215.583 33.5 216.694 33.5 218C33.5 219.306 34.3348 220.417 35.5 220.829V231H37.5V220.829C38.6652 220.417 39.5 219.306 39.5 218C39.5 216.694 38.6652 215.583 37.5 215.171V213ZM41.5 213H43.5V225.171C44.6652 225.583 45.5 226.694 45.5 228C45.5 229.657 44.1569 231 42.5 231C40.8431 231 39.5 229.657 39.5 228C39.5 226.694 40.3348 225.583 41.5 225.171V213ZM49.5 213H47.5V218.171C46.3348 218.583 45.5 219.694 45.5 221C45.5 222.306 46.3348 223.417 47.5 223.829V231H49.5V223.829C50.6652 223.417 51.5 222.306 51.5 221C51.5 219.694 50.6652 218.583 49.5 218.171V213ZM35.5 218C35.5 217.448 35.9477 217 36.5 217C37.0523 217 37.5 217.448 37.5 218C37.5 218.552 37.0523 219 36.5 219C35.9477 219 35.5 218.552 35.5 218ZM42.5 227C41.9477 227 41.5 227.448 41.5 228C41.5 228.552 41.9477 229 42.5 229C43.0523 229 43.5 228.552 43.5 228C43.5 227.448 43.0523 227 42.5 227ZM47.5 221C47.5 220.448 47.9477 220 48.5 220C49.0523 220 49.5 220.448 49.5 221C49.5 221.552 49.0523 222 48.5 222C47.9477 222 47.5 221.552 47.5 221Z" fill="#1686ED"/>
<path fill-rule="evenodd" clip-rule="evenodd" d="M76.9221 215.363C75.6103 214.48 74.0662 214.006 72.485 214H72.4549C70.3345 214 68.3008 214.842 66.8007 216.341C65.3006 217.839 64.4569 219.872 64.4549 221.993C64.4534 223.574 64.9206 225.12 65.7974 226.436C66.6742 227.752 67.9214 228.778 69.3813 229.386C70.8412 229.994 72.4485 230.155 74 229.849C75.5515 229.544 76.9777 228.786 78.0984 227.67C79.2192 226.555 79.9842 225.132 80.2969 223.582C80.6096 222.032 80.4559 220.424 79.8552 218.961C79.2546 217.498 78.2339 216.246 76.9221 215.363ZM66.9107 213.708C68.5495 212.603 70.4787 212.009 72.4549 212H72.5075C75.1577 212 77.6993 213.053 79.5733 214.927C81.4472 216.801 82.5 219.342 82.5 221.993C82.5015 223.969 81.9174 225.901 80.8214 227.546C79.7255 229.19 78.1669 230.473 76.3424 231.232C74.5179 231.992 72.5093 232.193 70.5702 231.812C68.6312 231.431 66.8486 230.483 65.4475 229.09C64.0465 227.696 63.0898 225.918 62.6982 223.981C62.3067 222.044 62.4979 220.035 63.2476 218.206C63.9973 216.378 65.272 214.812 66.9107 213.708ZM71.5 217V221.5C71.5 222.13 71.7964 222.722 72.3 223.1L75.9 225.8L77.1 224.2L73.5 221.5V217H71.5Z" fill="#1686ED"/>
<path fill-rule="evenodd" clip-rule="evenodd" d="M110.81 223.808C112.335 223.085 112.335 220.915 110.81 220.193L95.9064 213.133C94.2943 212.369 92.5647 213.938 93.1681 215.617L95.4627 222L93.1681 228.383C92.5647 230.062 94.2943 231.631 95.9064 230.867L110.81 223.808ZM109.954 222L95.0502 229.06L97.2285 223L102.29 223L102.29 221L97.2285 221L95.0502 214.94L109.954 222Z" fill="#1686ED"/>
<path fill-rule="evenodd" clip-rule="evenodd" d="M124.578 221.695C126.109 218.896 129.083 217 132.5 217C135.917 217 138.891 218.896 140.422 221.695C140.526 221.885 140.526 222.115 140.422 222.305C138.891 225.104 135.917 227 132.5 227C129.083 227 126.109 225.104 124.578 222.305C124.474 222.115 124.474 221.885 124.578 221.695ZM132.5 215C128.324 215 124.691 217.32 122.823 220.736C122.392 221.524 122.392 222.476 122.823 223.264C124.691 226.68 128.324 229 132.5 229C136.676 229 140.309 226.68 142.177 223.264C142.608 222.476 142.608 221.524 142.177 220.736C140.309 217.32 136.676 215 132.5 215ZM130.5 222C130.5 220.895 131.395 220 132.5 220C133.605 220 134.5 220.895 134.5 222C134.5 223.105 133.605 224 132.5 224C131.395 224 130.5 223.105 130.5 222ZM132.5 218C130.291 218 128.5 219.791 128.5 222C128.5 224.209 130.291 226 132.5 226C134.709 226 136.5 224.209 136.5 222C136.5 219.791 134.709 218 132.5 218Z" fill="#1686ED"/>
<path fill-rule="evenodd" clip-rule="evenodd" d="M154.257 230.207C154.648 230.598 155.281 230.598 155.672 230.207L160.424 225.455C161.029 225.824 161.739 226.036 162.5 226.036C164.709 226.036 166.5 224.245 166.5 222.036C166.5 221.275 166.288 220.565 165.919 219.959L170.672 215.207C171.062 214.817 171.062 214.183 170.672 213.793C170.281 213.402 169.648 213.402 169.257 213.793L167.04 216.01C166.503 215.767 165.942 215.566 165.363 215.411C164.449 215.166 163.489 215.036 162.5 215.036C158.324 215.036 154.691 217.355 152.823 220.771C152.392 221.559 152.392 222.512 152.823 223.3C153.457 224.459 154.293 225.491 155.285 226.349C155.539 226.569 155.803 226.778 156.076 226.974L154.257 228.793C153.867 229.183 153.867 229.817 154.257 230.207ZM157.547 225.503L156.557 224.805C155.761 224.108 155.089 223.274 154.578 222.34C154.474 222.15 154.474 221.921 154.578 221.731C156.109 218.932 159.083 217.036 162.5 217.036C163.313 217.036 164.098 217.143 164.845 217.343C165.068 217.402 165.288 217.471 165.504 217.547L164.487 218.563C163.902 218.228 163.223 218.036 162.5 218.036C160.291 218.036 158.5 219.827 158.5 222.036C158.5 222.759 158.692 223.437 159.028 224.023L157.547 225.503ZM162.5 224.036C162.301 224.036 162.108 224.007 161.927 223.952L164.416 221.462C164.471 221.644 164.5 221.836 164.5 222.036C164.5 223.14 163.604 224.036 162.5 224.036ZM162.5 220.036C162.659 220.036 162.813 220.054 162.961 220.089L160.553 222.497C160.518 222.349 160.5 222.194 160.5 222.036C160.5 220.931 161.395 220.036 162.5 220.036ZM162.5 227.036C162.23 227.036 161.963 227.024 161.699 227.001L159.959 228.741C160.775 228.934 161.626 229.036 162.5 229.036C166.676 229.036 170.309 226.716 172.177 223.3C172.608 222.512 172.608 221.559 172.177 220.771C171.687 219.876 171.076 219.056 170.366 218.333L168.952 219.748C169.528 220.337 170.024 221.004 170.422 221.731C170.526 221.921 170.526 222.15 170.422 222.34C168.891 225.139 165.917 227.036 162.5 227.036Z" fill="#1686ED"/>
</svg>
