<svg width="175" height="234" viewBox="0 0 175 234" fill="none" xmlns="http://www.w3.org/2000/svg">
<path fill-rule="evenodd" clip-rule="evenodd" d="M4.5 4C4.5 2.89543 5.39543 2 6.5 2H18.5C19.6046 2 20.5 2.89543 20.5 4V20C20.5 21.1046 19.6046 22 18.5 22H6.5C5.39543 22 4.5 21.1046 4.5 20V4ZM10.5 16V18H14.5V16H10.5Z" fill="#1686ED"/>
<path fill-rule="evenodd" clip-rule="evenodd" d="M34.502 2C33.3974 2 32.502 2.89543 32.502 4V20C32.502 21.1046 33.3974 22 34.502 22H46.502C47.6065 22 48.502 21.1046 48.502 20V15.6572C50.8303 14.8324 52.498 12.611 52.498 10C52.498 7.38902 50.8303 5.16757 48.502 4.34279V4C48.502 2.89543 47.6065 2 46.502 2H34.502ZM38.502 18H42.502V16H38.502V18ZM50.502 10C50.502 12.2091 48.7111 14 46.502 14C44.2928 14 42.502 12.2091 42.502 10C42.502 7.79086 44.2928 6 46.502 6C48.7111 6 50.502 7.79086 50.502 10ZM45.498 7V9H43.498V11H45.498V13H47.498V11H49.498V9H47.498V7H45.498Z" fill="#1686ED"/>
<path fill-rule="evenodd" clip-rule="evenodd" d="M64.503 5H80.497C81.0276 5.00198 81.5359 5.21367 81.9111 5.58892C82.2863 5.96417 82.498 6.47255 82.5 7.00323V9H62.5V7.00323C62.502 6.47255 62.7137 5.96417 63.0889 5.58892C63.4641 5.21367 63.9724 5.00198 64.503 5ZM62.5 11V16.9968C62.502 17.5274 62.7137 18.0358 63.0889 18.4111C63.4641 18.7863 63.9724 18.998 64.503 19H80.497C81.0276 18.998 81.5359 18.7863 81.9111 18.4111C82.2863 18.0358 82.498 17.5274 82.5 16.9968V11H62.5ZM78.5 13H74.5V15H78.5V13Z" fill="#1686ED"/>
<path fill-rule="evenodd" clip-rule="evenodd" d="M109.06 6.75H111.1C111.9 6.75 112.5 7.35 112.5 8.15V11.85C112.5 12.65 111.9 13.25 111.1 13.25H103.5V6.75H101.5V13.25H93.9C93.1 13.25 92.5 12.65 92.5 11.85V8.15C92.5 7.35 93.1 6.75 93.9 6.75H95.94C95.79 6.38 95.7 5.98 95.7 5.55C95.7 3.75 97.2 2.25 99 2.25C100.64 2.25 101.76 3.17 102.48 4.23C103.2 3.17 104.36 2.25 106 2.25C107.8 2.25 109.3 3.75 109.3 5.55C109.3 5.97 109.22 6.37 109.06 6.75ZM99 6.75H101.48H101.49V6.71C101.41 6.4 100.76 4.25 99 4.25C98.3 4.25 97.7 4.85 97.8 5.55C97.8 6.15 98.3 6.75 99 6.75ZM107.29 5.55C107.29 4.85 106.69 4.25 105.99 4.25C104.19 4.25 103.49 6.75 103.59 6.75H106.09C106.69 6.75 107.29 6.25 107.29 5.55ZM95 20.35C95 21.15 95.6 21.75 96.4 21.75H101.5V15.25H95V20.35ZM103.5 21.75H108.6C109.4 21.75 110 21.15 110 20.35V15.25H103.5V21.75Z" fill="#1686ED"/>
<path fill-rule="evenodd" clip-rule="evenodd" d="M132.5 3C131.709 3 130.936 3.2346 130.278 3.67413C129.62 4.11365 129.107 4.73837 128.804 5.46927C128.502 6.20018 128.423 7.00443 128.577 7.78036C128.731 8.55628 129.112 9.26902 129.672 9.82843C130.231 10.3878 130.944 10.7688 131.72 10.9231C132.496 11.0775 133.3 10.9983 134.031 10.6955C134.762 10.3928 135.386 9.88007 135.826 9.22228C136.265 8.56448 136.5 7.79113 136.5 7C136.5 5.93914 136.079 4.92172 135.328 4.17158C134.578 3.42143 133.561 3 132.5 3ZM125.855 20.9986H139.062C139.378 21.0094 139.693 20.9582 139.987 20.8482C140.282 20.7381 140.551 20.5714 140.779 20.358C141.006 20.1445 141.187 19.8887 141.311 19.6057C141.435 19.3227 141.499 19.0183 141.5 18.7106C141.5 15.0117 137.472 12 132.5 12C127.528 12 123.5 15.0117 123.5 18.7106C123.502 19.3181 123.751 19.9 124.192 20.3289C124.634 20.7578 125.232 20.9986 125.855 20.9986Z" fill="#1686ED"/>
<path fill-rule="evenodd" clip-rule="evenodd" d="M160.482 10C161.175 10 161.851 9.79473 162.427 9.41015C163.002 9.02556 163.451 8.47894 163.716 7.8394C163.981 7.19986 164.05 6.49611 163.915 5.81718C163.78 5.13825 163.447 4.51461 162.957 4.02512C162.468 3.53564 161.844 3.2023 161.165 3.06725C160.486 2.93221 159.783 3.00151 159.143 3.26642C158.503 3.53132 157.957 3.97993 157.572 4.55551C157.188 5.13108 156.982 5.80777 156.982 6.50001C156.982 7.42826 157.351 8.3185 158.008 8.97487C158.664 9.63125 159.554 10 160.482 10ZM160.478 11C156.324 11 152.982 14.2256 152.982 16.8872V17.9925C152.982 18.7901 153.322 19.5551 153.926 20.1191C154.53 20.6831 155.349 21 156.203 21H164.762C165.616 21 166.435 20.6831 167.039 20.1191C167.643 19.5551 167.982 18.7901 167.982 17.9925V16.8947C167.966 14.2256 164.649 11 160.478 11ZM168.482 12.0355L172.018 8.5L170.604 7.08578L167.775 9.91421L166.361 8.5L164.947 9.91421L167.068 12.0355L167.775 12.7426L168.482 12.0355Z" fill="#1686ED"/>
<path fill-rule="evenodd" clip-rule="evenodd" d="M12.4445 39.4102C11.8689 39.7947 11.1922 40 10.5 40C9.57174 40 8.6815 39.6313 8.02513 38.9749C7.36875 38.3185 7 37.4283 7 36.5C7 35.8078 7.20527 35.1311 7.58985 34.5555C7.97444 33.9799 8.52106 33.5313 9.1606 33.2664C9.80014 33.0015 10.5039 32.9322 11.1828 33.0673C11.8617 33.2023 12.4854 33.5356 12.9749 34.0251C13.4644 34.5146 13.7977 35.1383 13.9327 35.8172C14.0678 36.4961 13.9985 37.1999 13.7336 37.8394C13.4687 38.4789 13.0201 39.0256 12.4445 39.4102ZM10.496 41C6.34139 41 3 44.2256 3 46.8872V47.9925C3 48.7901 3.33932 49.5551 3.9433 50.1191C4.54729 50.6831 5.36645 51 6.22061 51H14.7794C15.6335 51 16.4527 50.6831 17.0567 50.1191C17.6607 49.5551 18 48.7901 18 47.9925V46.8947C17.9839 44.2256 14.6667 41 10.496 41ZM18 37V39H16V41H18V43H20V41H22V39H20V37H18Z" fill="#1686ED"/>
<path d="M52.1339 46.4986L50.8339 43.5986C50.7339 43.2986 50.5339 43.0986 50.3339 42.7986C50.4339 42.5986 50.5339 42.2986 50.5339 41.9986V34.9986C50.5339 34.4986 50.3339 33.9986 49.9339 33.5986C49.5339 33.1986 49.0339 32.9986 48.5339 32.9986H36.6339C36.1339 32.9986 35.6339 33.1986 35.2339 33.5986C34.8339 33.9986 34.6339 34.4986 34.6339 34.9986V41.9986C34.6339 42.2986 34.7339 42.5985 34.8339 42.8986C34.7339 43.0985 34.5339 43.1986 34.4339 43.3986L32.9339 46.2986C31.9339 48.2986 33.0339 50.9986 35.0339 50.9986H50.1339C51.8339 51.0986 53.0339 48.5986 52.1339 46.4986ZM36.4339 35.0986H48.3339V42.0986H36.4339V35.0986Z" fill="#1686ED"/>
<path fill-rule="evenodd" clip-rule="evenodd" d="M63.5 35C63.5 33.8954 64.3954 33 65.5 33H79.5C80.6046 33 81.5 33.8954 81.5 35V37H75.5H75L74.7 37.4L72.548 40.2693L71.3321 38.4453L70.5 37.1972L69.6679 38.4453L67.9648 41H63.5V35ZM76 39H81.5V45C81.5 46.1046 80.6046 47 79.5 47H73.5V49H78.5V51H73.5H71.5H66.5V49H71.5V47H65.5C64.3954 47 63.5 46.1046 63.5 45V43H68.5H69.0352L69.3321 42.5547L70.5 40.8028L71.6679 42.5547L72.452 43.7307L73.3 42.6L76 39Z" fill="#1686ED"/>
<path fill-rule="evenodd" clip-rule="evenodd" d="M102.5 51.8508C102.161 51.8508 101.822 51.7668 101.521 51.5968L101.218 51.4258C96.457 48.7488 93.5 43.6918 93.5 38.2298V38.0848C93.5 37.3658 93.89 36.6978 94.518 36.3428L101.52 32.4048C102.125 32.0648 102.876 32.0638 103.479 32.4038L110.48 36.3418C111.11 36.6978 111.5 37.3658 111.5 38.0848V38.2298C111.5 43.6918 108.543 48.7488 103.782 51.4258L103.48 51.5958C103.178 51.7658 102.839 51.8508 102.5 51.8508ZM103.146 45.0964L108.096 40.1467L106.682 38.7325L102.439 42.9751L100.318 40.8538L98.9037 42.268L101.732 45.0964L102.439 45.8036L103.146 45.0964Z" fill="#1686ED"/>
<path d="M139.5 40V39C139.5 35.1 136.4 32 132.5 32C128.6 32 125.5 35.1 125.5 39V40C123.8 40 122.5 41.3 122.5 43V44C122.5 45.7 123.8 47 125.5 47H127.5V39C127.5 36.2 129.7 34 132.5 34C135.3 34 137.5 36.2 137.5 39V45C137.5 47.8 135.3 50 132.5 50V52C135.7 52 138.4 49.9 139.2 47H139.5C141.2 47 142.5 45.7 142.5 44V43C142.5 41.3 141.2 40 139.5 40Z" fill="#1686ED"/>
<path fill-rule="evenodd" clip-rule="evenodd" d="M167 35C166.724 35 166.5 35.2239 166.5 35.5V49H170.5V35.5C170.5 35.2239 170.276 35 170 35H167ZM160.5 40.5C160.5 40.2239 160.724 40 161 40H164C164.276 40 164.5 40.2239 164.5 40.5V49H160.5V40.5ZM154.5 45.5C154.5 45.2239 154.724 45 155 45H158C158.276 45 158.5 45.2239 158.5 45.5V49H154.5V45.5Z" fill="#1686ED"/>
<path d="M21.9 65.1C21.5 64.7 21 64.5 20.5 64.5H4.5C4 64.5 3.5 64.7 3.1 65.1C2.7 65.5 2.5 66 2.5 66.5V77.5C2.5 78 2.7 78.5 3.1 78.9C3.5 79.3 4 79.5 4.5 79.5H20.5C21 79.5 21.5 79.3 21.9 78.9C22.3 78.5 22.5 78 22.5 77.5V66.5C22.5 66 22.3 65.5 21.9 65.1ZM19.3 66.5L12.5 70.5L6 66.5H19.3Z" fill="#1686ED"/>
<path fill-rule="evenodd" clip-rule="evenodd" d="M47.5587 69.0321H48.4868C49.0207 69.0321 49.5328 69.2441 49.9103 69.6213C50.2879 69.9985 50.5 70.51 50.5 71.0435V79.9887C50.5 80.5221 50.2879 81.0337 49.9103 81.4109C49.5328 81.7881 49.0207 82 48.4868 82H36.5132C35.9793 82 35.4672 81.7881 35.0897 81.4109C34.7121 81.0337 34.5 80.5221 34.5 79.9887V71.0435C34.5 70.7793 34.5521 70.5178 34.6533 70.2738C34.7544 70.0297 34.9027 69.808 35.0897 69.6213C35.2766 69.4345 35.4986 69.2863 35.7428 69.1852C35.9871 69.0842 36.2489 69.0321 36.5132 69.0321H37.5V67.0208C37.5 65.6892 38.0295 64.4121 38.972 63.4705C39.9144 62.529 41.1927 62 42.5255 62C43.1861 61.999 43.8405 62.1281 44.4511 62.38C45.0617 62.6319 45.6166 63.0016 46.084 63.4679C46.5515 63.9342 46.9224 64.488 47.1754 65.0977C47.4284 65.7073 47.5587 66.3608 47.5587 67.0208V69.0321ZM40.3697 64.8821C39.8019 65.4493 39.483 66.2186 39.483 67.0208V69.0321H45.5378V67.0208C45.5378 66.2186 45.2189 65.4493 44.6511 64.8821C44.0834 64.3149 43.3133 63.9962 42.5104 63.9962C41.7075 63.9962 40.9374 64.3149 40.3697 64.8821ZM39.5108 74.2646L41.4786 76.223L45.2553 72.4498L46.6782 73.8714L41.4786 79.0661L38.0879 75.6861L39.5108 74.2646Z" fill="#1686ED"/>
<path fill-rule="evenodd" clip-rule="evenodd" d="M79.9686 68.0155C80.8486 69.1555 81.4586 70.4855 81.7686 71.8955H81.7586C82.0786 73.3055 82.0686 74.7755 81.7586 76.1855C81.6086 76.8355 81.2486 77.4055 80.7386 77.8155C80.2386 78.2255 79.6086 78.4555 78.9586 78.4555H74.8086C74.4186 79.0355 73.8186 79.4555 73.1186 79.6255C73.1086 79.6355 73.0986 79.6355 73.0886 79.6355C72.8886 79.6855 72.6786 79.7155 72.4686 79.7155H72.4086C72.2486 79.7155 72.0986 79.7055 71.9386 79.6755C71.9236 79.6755 71.9111 79.6705 71.8986 79.6655C71.8861 79.6605 71.8736 79.6555 71.8586 79.6555C71.7986 79.6455 71.7386 79.6255 71.6786 79.6055C71.5586 79.5755 71.4386 79.5455 71.3286 79.4955C71.2349 79.4642 71.1473 79.4147 71.061 79.3659C71.0368 79.3522 71.0127 79.3386 70.9886 79.3255C70.9753 79.3188 70.962 79.3132 70.9486 79.3077C70.922 79.2966 70.8953 79.2855 70.8686 79.2655L70.8586 79.2555C70.5386 79.0455 70.2486 78.7755 70.0286 78.4555H66.0586C65.3986 78.4455 64.7686 78.2255 64.2586 77.8055C63.7486 77.3855 63.3986 76.8055 63.2486 76.1555C62.9186 74.7255 62.9286 73.2355 63.2486 71.8055C63.5786 70.3755 64.2186 69.0355 65.1186 67.8955C66.0186 66.7455 67.1686 65.8255 68.4686 65.2055C69.7686 64.5755 71.1886 64.2655 72.6286 64.2855H72.6386C74.0486 64.3055 75.4486 64.6555 76.7186 65.3055C77.9786 65.9455 79.0986 66.8755 79.9686 68.0155ZM72.999 65.3055H71.999V68.2855H72.999V65.3055ZM73.3086 76.8255C73.3086 76.6655 73.2586 76.5155 73.1786 76.3855L73.1686 76.3755L75.0386 73.0655L74.1686 72.5755L72.2686 75.9555C71.8386 76.0255 71.5086 76.3755 71.5086 76.8255C71.5086 77.3255 71.9086 77.7255 72.4086 77.7255C72.9086 77.7255 73.3086 77.3255 73.3086 76.8255ZM66.5703 67.5427L68.0703 70.0427L68.9278 69.5282L67.4278 67.0282L66.5703 67.5427ZM76.9278 70.0427L78.4278 67.5427L77.5703 67.0282L76.0703 69.5282L76.9278 70.0427Z" fill="#1686ED"/>
<path d="M109.91 62.59C109.53 62.21 109.01 62 108.48 62H101.31C101.04 62 100.78 62.05 100.53 62.16C100.28 62.26 100.06 62.42 99.87 62.61L95.08 67.45C94.9 67.63 94.75 67.85 94.65 68.09C94.55 68.33 94.5 68.59 94.5 68.85V80C94.5 80.53 94.72 81.04 95.09 81.41C95.47 81.79 95.98 82 96.52 82H108.48C109.01 82 109.53 81.79 109.91 81.41C110.29 81.03 110.5 80.53 110.5 80V64C110.5 63.47 110.28 62.96 109.91 62.59ZM101.32 67.33C101.32 67.53 101.28 67.73 101.2 67.91C101.12 68.1 101.01 68.26 100.87 68.41C100.73 68.55 100.56 68.66 100.37 68.74C100.18 68.82 99.98 68.86 99.78 68.86H96.52L101.32 63.99V67.33Z" fill="#1686ED"/>
<path fill-rule="evenodd" clip-rule="evenodd" d="M132.5 82C138.023 82 142.5 77.5228 142.5 72C142.5 66.4772 138.023 62 132.5 62C126.977 62 122.5 66.4772 122.5 72C122.5 77.5228 126.977 82 132.5 82ZM135.207 67.7071L133.793 66.2929L128.086 72L133.793 77.7071L135.207 76.2929L130.914 72L135.207 67.7071Z" fill="#1686ED"/>
<path fill-rule="evenodd" clip-rule="evenodd" d="M162.5 82C168.023 82 172.5 77.5228 172.5 72C172.5 66.4772 168.023 62 162.5 62C156.977 62 152.5 66.4772 152.5 72C152.5 77.5228 156.977 82 162.5 82ZM163.501 70.9958H169.504V72.9967H163.501V79H161.5V72.9967H155.504V70.9958H161.5V65H163.501V70.9958Z" fill="#1686ED"/>
<path d="M3.5 96H21.5M3.5 102H21.5M3.5 108H21.5" stroke="#1686ED" stroke-width="2"/>
<path fill-rule="evenodd" clip-rule="evenodd" d="M42.5 112C48.0228 112 52.5 107.523 52.5 102C52.5 96.4772 48.0228 92 42.5 92C36.9772 92 32.5 96.4772 32.5 102C32.5 107.523 36.9772 112 42.5 112ZM42.0705 105.715L48.1995 99.7146L46.8005 98.2854L41.3369 103.634L38.163 100.823L36.837 102.32L40.7079 105.749L41.4051 106.366L42.0705 105.715Z" fill="#1686ED"/>
<path fill-rule="evenodd" clip-rule="evenodd" d="M72.5 112C78.0228 112 82.5 107.523 82.5 102C82.5 96.4772 78.0228 92 72.5 92C66.9772 92 62.5 96.4772 62.5 102C62.5 107.523 66.9772 112 72.5 112ZM69.2071 106.707L72.5 103.414L75.7929 106.707L77.2071 105.293L73.9142 102L77.2071 98.7071L75.7929 97.2929L72.5 100.586L69.2071 97.2929L67.7929 98.7071L71.0858 102L67.7929 105.293L69.2071 106.707Z" fill="#1686ED"/>
<path fill-rule="evenodd" clip-rule="evenodd" d="M102.5 112C108.023 112 112.5 107.523 112.5 102C112.5 96.4772 108.023 92 102.5 92C96.9772 92 92.5 96.4772 92.5 102C92.5 107.523 96.9772 112 102.5 112ZM106.465 103C106.029 104.753 104.445 106.052 102.557 106.052C100.334 106.052 98.5312 104.25 98.5312 102.026C98.5312 99.8025 100.334 98 102.557 98C103.844 98 104.99 98.6038 105.727 99.5435L104.262 101.008H108.505V96.7656L107.148 98.1224C106.043 96.8237 104.396 96 102.557 96C99.2292 96 96.5312 98.6979 96.5312 102.026C96.5312 105.354 99.2292 108.052 102.557 108.052C105.554 108.052 108.039 105.865 108.505 103H106.465Z" fill="#1686ED"/>
<path d="M136.605 104.7C137.565 103.44 138.145 101.86 138.145 100.15C138.145 96.01 134.785 92.65 130.645 92.65C126.505 92.65 123.145 96.01 123.145 100.15C123.145 104.29 126.505 107.65 130.645 107.65C132.355 107.65 133.935 107.08 135.195 106.11L140.435 111.35L141.855 109.94L136.615 104.7H136.605ZM135.655 100.61C135.405 100.61 135.195 100.41 135.195 100.15C135.195 97.64 133.145 95.59 130.635 95.59C130.385 95.59 130.175 95.39 130.175 95.13C130.175 94.87 130.375 94.67 130.635 94.67C133.655 94.67 136.105 97.13 136.105 100.14C136.105 100.39 135.905 100.6 135.645 100.6L135.655 100.61Z" fill="#1686ED"/>
<path d="M168.5 104C167.22 104 166.09 104.6 165.35 105.53L160.39 102.92C160.46 102.62 160.5 102.32 160.5 102C160.5 101.68 160.46 101.38 160.39 101.08L165.35 98.47C166.08 99.4 167.22 100 168.5 100C170.71 100 172.5 98.21 172.5 96C172.5 93.79 170.71 92 168.5 92C166.29 92 164.5 93.79 164.5 96C164.5 96.22 164.52 96.43 164.55 96.63L159.5 99.29V99.35C158.77 98.52 157.7 98 156.5 98C154.29 98 152.5 99.79 152.5 102C152.5 104.21 154.29 106 156.5 106C157.7 106 158.77 105.48 159.5 104.65V104.71L164.55 107.37C164.52 107.58 164.5 107.79 164.5 108C164.5 110.21 166.29 112 168.5 112C170.71 112 172.5 110.21 172.5 108C172.5 105.79 170.71 104 168.5 104Z" fill="#1686ED"/>
<path fill-rule="evenodd" clip-rule="evenodd" d="M22.2605 129.82L22.3505 130.35H22.3605C22.5505 131.44 22.5505 132.56 22.3605 133.66L22.2705 134.19L20.1305 135.16L20.9605 137.36L20.6505 137.8C20.0005 138.7 19.2005 139.5 18.2905 140.15L17.8605 140.46L15.6605 139.63L14.6905 141.77L14.1605 141.86C13.0605 142.04 11.9405 142.04 10.8405 141.86L10.3105 141.77L9.34055 139.63L7.14055 140.46L6.70055 140.15C5.79055 139.51 5.00055 138.71 4.35055 137.8L4.04055 137.36L4.87055 135.16L2.72055 134.19L2.64055 133.66C2.45055 132.56 2.45055 131.44 2.64055 130.35L2.72055 129.82L4.86055 128.84L4.03055 126.64L4.34055 126.2C4.99055 125.3 5.78055 124.5 6.69055 123.85L7.13055 123.54L9.33055 124.37L10.3005 122.23L10.8305 122.14C11.9305 121.96 13.0505 121.96 14.1505 122.14L14.6805 122.23L15.6505 124.38L17.8505 123.55L18.2805 123.86C19.2005 124.5 19.9905 125.3 20.6405 126.21L20.9505 126.65L20.1205 128.85L22.2605 129.82ZM9.65055 134.84C10.2105 135.4 10.9205 135.79 11.7005 135.94C12.4805 136.09 13.2905 136.01 14.0205 135.71C14.7505 135.4 15.3805 134.89 15.8205 134.23C16.2605 133.57 16.5005 132.79 16.5005 132C16.5005 130.93 16.0805 129.91 15.3305 129.16C14.5705 128.41 13.5505 127.99 12.4905 127.99C11.6905 127.99 10.9205 128.23 10.2605 128.67C9.60055 129.11 9.08055 129.74 8.78055 130.47C8.47055 131.21 8.40055 132.01 8.55055 132.79C8.71055 133.56 9.09055 134.28 9.65055 134.84ZM13.2705 130.14C13.6405 130.29 13.9505 130.55 14.1705 130.88H14.1605C14.3805 131.21 14.5005 131.59 14.5005 131.99C14.5005 132.52 14.2905 133.03 13.9105 133.41C13.5405 133.79 13.0205 134 12.4905 134C12.1005 134 11.7105 133.88 11.3805 133.66C11.0505 133.44 10.7905 133.13 10.6405 132.76C10.4905 132.39 10.4505 131.99 10.5305 131.6C10.6105 131.21 10.8005 130.85 11.0805 130.57C11.3605 130.29 11.7205 130.1 12.1105 130.02C12.5005 129.95 12.9005 129.99 13.2705 130.14Z" fill="#1686ED"/>
<path fill-rule="evenodd" clip-rule="evenodd" d="M47.4981 125.005H52.5V127.006H51.3868L50.5218 139.935C50.5218 141.071 49.3936 142.004 48.0021 142.004H37.0431C35.6591 142.004 34.5233 141.071 34.5233 139.935L33.6583 127.006H32.5V125.005H37.5921L39.638 121.996H45.4071L47.4981 125.005ZM44.3616 124.005H40.691L40.0141 125.005H45.0611L44.3616 124.005ZM37.5 131H39.5008V136.002H37.5V131ZM47.5008 131H45.5V136.002H47.5008V131ZM41.5 131H43.5008V136.002H41.5V131Z" fill="#1686ED"/>
<path fill-rule="evenodd" clip-rule="evenodd" d="M73.49 128.91V136.99H71.49V128.91H66.61L72.49 122.99L78.37 128.91H73.49ZM79.49 137.97V133.99H81.5V137.98C81.5 138.78 81.18 139.55 80.62 140.12C80.05 140.69 79.29 141.01 78.49 141.01H66.51C65.71 141.01 64.94 140.69 64.38 140.12C63.82 139.55 63.5 138.78 63.5 137.98V133.99H65.5V137.98C65.5 138.24 65.6 138.5 65.79 138.69C65.98 138.87 66.23 138.98 66.5 138.98H78.5C78.76 138.98 79.01 138.87 79.2 138.68C79.38 138.49 79.49 138.24 79.49 137.97Z" fill="#1686ED"/>
<path fill-rule="evenodd" clip-rule="evenodd" d="M108.375 131.07L102.505 136.99L96.6149 131.07H101.505V122.99H103.505V131.07H108.375ZM109.495 133.99V133.98L109.485 133.99H109.495ZM109.495 137.97V133.99H111.495V137.98C111.495 138.78 111.175 139.55 110.615 140.12C110.055 140.69 109.295 141.01 108.495 141.01H96.5149C95.7149 141.01 94.9449 140.69 94.3849 140.12C93.8249 139.55 93.5049 138.78 93.5049 137.98V133.99H95.5049V137.98C95.5049 138.24 95.6049 138.5 95.7949 138.69C95.9849 138.87 96.2349 138.98 96.5049 138.98H108.495C108.765 138.98 109.015 138.87 109.205 138.68C109.385 138.49 109.495 138.24 109.495 137.97Z" fill="#1686ED"/>
<path fill-rule="evenodd" clip-rule="evenodd" d="M139.165 138.68C139.375 138.46 139.495 138.18 139.495 137.88V132H141.495V137.88C141.495 138.71 141.175 139.5 140.585 140.09C139.995 140.67 139.205 141 138.375 141H126.625C125.795 140.99 125.005 140.67 124.415 140.08C123.825 139.5 123.495 138.71 123.495 137.88V126.12C123.495 125.29 123.815 124.5 124.405 123.91C124.995 123.33 125.785 123 126.615 123H132.495V124.98H126.615C126.315 124.99 126.025 125.11 125.815 125.32C125.605 125.53 125.485 125.82 125.485 126.12V137.88C125.485 138.18 125.595 138.47 125.815 138.68C126.035 138.89 126.315 139.01 126.615 139.01H138.365C138.665 139.01 138.955 138.89 139.165 138.68ZM141.495 123H141.505V130L141.495 129.99V130L138.725 127.24L133.815 132.15L132.405 130.74L137.315 125.83V125.82L134.485 123H134.495H141.495Z" fill="#1686ED"/>
<path fill-rule="evenodd" clip-rule="evenodd" d="M171.781 124.58C171.971 124.77 172.111 124.99 172.211 125.23V125.22C172.311 125.47 172.361 125.73 172.361 125.99V137.99C172.361 138.53 172.151 139.03 171.781 139.41C171.411 139.79 170.911 140 170.391 140H154.611C154.091 140 153.591 139.79 153.221 139.41C152.851 139.03 152.641 138.52 152.641 137.99V125.99C152.641 125.46 152.851 124.95 153.221 124.57C153.591 124.2 154.091 123.99 154.611 124H170.381C170.641 124 170.901 124.05 171.141 124.15C171.381 124.25 171.601 124.39 171.781 124.58ZM170.391 125.97H154.611H154.601V130.89L155.661 129.86C155.961 129.56 156.331 129.33 156.741 129.18C157.151 129.03 157.581 128.98 158.011 129.02C158.441 129.06 158.841 129.19 159.211 129.4C159.571 129.61 159.891 129.9 160.141 130.25L161.911 132.78C161.961 132.86 162.031 132.93 162.121 132.97C162.211 133.02 162.301 133.03 162.401 133.02C162.491 133.02 162.591 132.99 162.671 132.94C162.761 132.89 162.821 132.82 162.871 132.73C163.081 132.38 163.361 132.08 163.701 131.86C164.041 131.64 164.431 131.51 164.831 131.47C165.231 131.43 165.641 131.49 166.011 131.64C166.381 131.79 166.721 132.03 166.981 132.34C166.996 132.355 167.011 132.373 167.026 132.39C167.041 132.408 167.056 132.425 167.071 132.44C167.086 132.457 167.101 132.474 167.115 132.49C167.185 132.568 167.244 132.634 167.311 132.7L170.391 135.71V125.97ZM168.291 130.26C168.051 130.42 167.761 130.51 167.471 130.51L167.461 130.52C167.061 130.52 166.691 130.36 166.411 130.08C166.131 129.79 165.971 129.41 165.971 129.01C165.971 128.71 166.061 128.42 166.221 128.17C166.391 127.93 166.621 127.73 166.891 127.62C167.161 127.5 167.461 127.47 167.751 127.53C168.041 127.59 168.301 127.73 168.511 127.94C168.721 128.15 168.861 128.42 168.921 128.71C168.981 129 168.951 129.3 168.841 129.58C168.721 129.86 168.531 130.09 168.291 130.26Z" fill="#1686ED"/>
<path fill-rule="evenodd" clip-rule="evenodd" d="M20.2687 157.58L10.4287 167.42C10.1787 167.66 9.82871 167.76 9.48871 167.84L4.75871 169.05C4.67871 169.06 4.58871 169.06 4.50871 169.05C4.37871 169.05 4.24871 169.03 4.11871 168.98C3.99871 168.93 3.88871 168.85 3.78871 168.76C3.66871 168.64 3.57871 168.48 3.52871 168.31C3.47871 168.14 3.47871 167.96 3.52871 167.79L4.89871 162.59C4.89871 162.59 4.89871 162.56 4.90871 162.55C4.93871 162.46 4.95871 162.37 5.00871 162.29C5.03871 162.24 5.07871 162.19 5.12871 162.14L14.9887 152.29C15.1787 152.1 15.4287 152 15.6987 152C15.9687 152 16.2187 152.11 16.4087 152.29L20.2687 156.15C20.4587 156.34 20.5587 156.6 20.5587 156.86C20.5587 157.12 20.4487 157.38 20.2687 157.57V157.58ZM6.74871 163.34L5.88871 166.61L9.17871 165.77L6.74871 163.34ZM9.50871 170H21.5087V172H9.50871V170Z" fill="#1686ED"/>
<path d="M35.5 169.494V153.5C35.5 152.948 35.9477 152.5 36.5 152.5H48.5C49.0523 152.5 49.5 152.948 49.5 153.5V169.494C49.5 170.319 48.5569 170.789 47.898 170.292L42.5 166.222L37.102 170.292C36.4431 170.789 35.5 170.319 35.5 169.494Z" fill="#1686ED"/>
<path fill-rule="evenodd" clip-rule="evenodd" d="M80.2997 165.84L78.4997 163.15V160.95C78.4997 158.73 77.2897 156.79 75.4997 155.75V154.95C75.4997 153.29 74.1597 151.95 72.4997 151.95C70.8397 151.95 69.4997 153.29 69.4997 154.95V155.75C67.7097 156.79 66.4997 158.73 66.4997 160.95V163.15L64.7097 165.84C63.8197 167.17 64.7797 168.95 66.3697 168.95H68.8397C69.1297 170.71 70.6597 172.05 72.4997 172.05C74.3397 172.05 75.8697 170.71 76.1597 168.95H78.6297C80.2297 168.95 81.1797 167.17 80.2897 165.84H80.2997ZM71.4997 154.95C71.4997 154.4 71.9497 153.95 72.4997 153.95C73.0497 153.95 73.4997 154.4 73.4997 154.95V155.03C73.1697 154.98 72.8397 154.95 72.4997 154.95C72.1597 154.95 71.8297 154.98 71.4997 155.03V154.95ZM72.4997 170.05C71.7697 170.05 71.1497 169.59 70.8997 168.95H74.0997C73.8497 169.59 73.2297 170.05 72.4997 170.05Z" fill="#1686ED"/>
<path fill-rule="evenodd" clip-rule="evenodd" d="M109.5 157.055H106.5V156.055C106.5 154.395 105.16 153.055 103.5 153.055H95.5C93.84 153.055 92.5 154.395 92.5 156.055V165.555C92.5 166.995 94.34 167.605 95.2 166.455L97 164.055H98.5V165.055C98.5 166.715 99.84 168.055 101.5 168.055H108.22L109.76 170.295C110.59 171.505 112.5 170.915 112.5 169.445V160.055C112.5 158.395 111.16 157.055 109.5 157.055ZM98.5 160.055V162.055H96L95.7 162.455L94.5 164.055V156.055C94.5 155.505 94.95 155.055 95.5 155.055H103.5C104.05 155.055 104.5 155.505 104.5 156.055V157.055H101.5C99.84 157.055 98.5 158.395 98.5 160.055Z" fill="#1686ED"/>
<path fill-rule="evenodd" clip-rule="evenodd" d="M132.5 172C138.023 172 142.5 167.523 142.5 162C142.5 156.477 138.023 152 132.5 152C126.977 152 122.5 156.477 122.5 162C122.5 167.523 126.977 172 132.5 172ZM126.854 161.759L131.244 166.158L138.147 159.256L136.733 157.842L131.244 163.331L128.267 160.346L126.854 161.759Z" fill="#1686ED"/>
<path fill-rule="evenodd" clip-rule="evenodd" d="M173.101 160.075L162.5 152.125L151.9 160.075L153.101 161.675L154.5 160.625V161.875V168.875V169.875C154.5 170.98 155.396 171.875 156.5 171.875H157.5H159.5H165.5H167.5H168.5C169.604 171.875 170.5 170.98 170.5 169.875V168.875V161.875V160.625L171.9 161.675L173.101 160.075ZM160.5 165.875V171.875H158.5V165.375C158.5 164.547 159.172 163.875 160 163.875H165C165.828 163.875 166.5 164.547 166.5 165.375V171.875H164.5V165.875H160.5Z" fill="#1686ED"/>
<path d="M19.5 187.677V185.327C19.5 182.957 16.88 181.527 14.89 182.797L12.02 184.627C11.86 184.727 11.67 184.787 11.48 184.787H5.5C3.84 184.777 2.5 186.117 2.5 187.777V193.707C2.5 195.127 3.48 196.307 4.8 196.627L6.32 200.417C6.62 201.177 7.36 201.677 8.18 201.677H10.03C11.44 201.677 12.41 200.247 11.89 198.937L11 196.707H11.51C11.7 196.707 11.88 196.757 12.03 196.857L14.93 198.647C16.93 199.877 19.5 198.447 19.5 196.097V193.677C21.16 193.677 22.5 192.337 22.5 190.677C22.5 189.017 21.16 187.677 19.5 187.677ZM8.18 199.677L6.99 196.707H8.84L10.03 199.677H8.18ZM19.5 191.677V189.677C20.05 189.677 20.5 190.127 20.5 190.677C20.5 191.227 20.05 191.677 19.5 191.677Z" fill="#1686ED"/>
<mask id="path-38-inside-1_339_4395" fill="white">
<path fill-rule="evenodd" clip-rule="evenodd" d="M36.2547 184.717C36.3954 183.732 37.2393 183 38.2346 183H46.7654C47.7607 183 48.6046 183.732 48.7453 184.717L50.2143 195H50.5C51.6046 195 52.5 195.895 52.5 197V199C52.5 200.105 51.6046 201 50.5 201H34.5C33.3954 201 32.5 200.105 32.5 199V197C32.5 195.895 33.3954 195 34.5 195H34.7857L36.2547 184.717ZM39.5 195H45.5V192C45.5 190.343 44.1569 189 42.5 189C40.8431 189 39.5 190.343 39.5 192V195Z"/>
</mask>
<path fill-rule="evenodd" clip-rule="evenodd" d="M36.2547 184.717C36.3954 183.732 37.2393 183 38.2346 183H46.7654C47.7607 183 48.6046 183.732 48.7453 184.717L50.2143 195H50.5C51.6046 195 52.5 195.895 52.5 197V199C52.5 200.105 51.6046 201 50.5 201H34.5C33.3954 201 32.5 200.105 32.5 199V197C32.5 195.895 33.3954 195 34.5 195H34.7857L36.2547 184.717ZM39.5 195H45.5V192C45.5 190.343 44.1569 189 42.5 189C40.8431 189 39.5 190.343 39.5 192V195Z" fill="#1686ED"/>
<path d="M36.2547 184.717L34.2748 184.434L34.2748 184.434L36.2547 184.717ZM48.7453 184.717L46.7654 185V185L48.7453 184.717ZM50.2143 195L48.2344 195.283L48.4797 197H50.2143V195ZM34.7857 195V197H36.5203L36.7656 195.283L34.7857 195ZM39.5 195H37.5V197H39.5V195ZM45.5 195V197H47.5V195H45.5ZM38.2346 181C36.244 181 34.5563 182.464 34.2748 184.434L38.2346 185L38.2346 185V181ZM46.7654 181H38.2346V185H46.7654V181ZM50.7252 184.434C50.4437 182.464 48.756 181 46.7654 181V185L46.7654 185L50.7252 184.434ZM52.1942 194.717L50.7252 184.434L46.7654 185L48.2344 195.283L52.1942 194.717ZM50.2143 197H50.5V193H50.2143V197ZM50.5 197H54.5C54.5 194.791 52.7091 193 50.5 193V197ZM50.5 197V199H54.5V197H50.5ZM50.5 199V203C52.7091 203 54.5 201.209 54.5 199H50.5ZM50.5 199H34.5V203H50.5V199ZM34.5 199H34.5H30.5C30.5 201.209 32.2909 203 34.5 203V199ZM34.5 199V197H30.5V199H34.5ZM34.5 197V193C32.2909 193 30.5 194.791 30.5 197H34.5ZM34.5 197H34.7857V193H34.5V197ZM34.2748 184.434L32.8058 194.717L36.7656 195.283L38.2346 185L34.2748 184.434ZM39.5 197H45.5V193H39.5V197ZM43.5 192V195H47.5V192H43.5ZM42.5 191C43.0523 191 43.5 191.448 43.5 192H47.5C47.5 189.239 45.2614 187 42.5 187V191ZM41.5 192C41.5 191.448 41.9477 191 42.5 191V187C39.7386 187 37.5 189.239 37.5 192H41.5ZM41.5 195V192H37.5V195H41.5Z" fill="#1686ED" mask="url(#path-38-inside-1_339_4395)"/>
<path fill-rule="evenodd" clip-rule="evenodd" d="M81.9521 195.497L75.9835 184.46C75.6301 183.849 75.1221 183.342 74.5107 182.989C73.8993 182.637 73.2059 182.451 72.5 182.451C71.7942 182.451 71.1007 182.637 70.4893 182.989C69.8779 183.342 69.3699 183.849 69.0165 184.46L63.0479 195.497C62.6909 196.109 62.5018 196.805 62.5 197.514C62.4982 198.223 62.6836 198.92 63.0375 199.534C63.3914 200.148 63.9013 200.658 64.5155 201.012C65.1297 201.365 65.8264 201.551 66.5353 201.549H78.4647C79.1736 201.551 79.8703 201.365 80.4845 201.012C81.0987 200.658 81.6086 200.148 81.9625 199.534C82.3164 198.92 82.5018 198.223 82.5 197.514C82.4982 196.805 82.3091 196.109 81.9521 195.497ZM73.5122 187.451H71.5V194.494H73.5122V187.451ZM71.5 195.451H73.5122V197.463H71.5V195.451Z" fill="#1686ED"/>
<path fill-rule="evenodd" clip-rule="evenodd" d="M112.5 192C112.5 197.523 108.023 202 102.5 202C96.9772 202 92.5 197.523 92.5 192C92.5 186.477 96.9772 182 102.5 182C108.023 182 112.5 186.477 112.5 192ZM101.5 190V198H103.5V190H101.5ZM101.5 188V186H103.5V188H101.5Z" fill="#1686ED"/>
<path fill-rule="evenodd" clip-rule="evenodd" d="M142.5 192C142.5 197.523 138.023 202 132.5 202C126.977 202 122.5 197.523 122.5 192C122.5 186.477 126.977 182 132.5 182C138.023 182 142.5 186.477 142.5 192ZM133.5 195H131.5V193.662C131.499 193.151 131.652 192.652 131.939 192.229C132.226 191.807 132.634 191.481 133.109 191.293C133.398 191.182 133.651 190.994 133.841 190.75C134.031 190.506 134.151 190.214 134.188 189.907C134.224 189.599 134.176 189.288 134.048 189.006C133.92 188.724 133.718 188.482 133.463 188.306C133.207 188.131 132.909 188.029 132.6 188.011C132.291 187.992 131.983 188.059 131.709 188.203C131.435 188.347 131.205 188.563 131.045 188.828C130.885 189.093 130.801 189.397 130.801 189.707H128.801C128.801 189.033 128.985 188.372 129.333 187.795C129.681 187.218 130.18 186.747 130.776 186.433C131.372 186.119 132.043 185.974 132.715 186.013C133.388 186.053 134.037 186.275 134.593 186.656C135.148 187.037 135.589 187.563 135.868 188.176C136.147 188.79 136.253 189.468 136.174 190.137C136.096 190.806 135.836 191.441 135.423 191.974C135.01 192.506 134.46 192.915 133.831 193.158C133.732 193.2 133.648 193.27 133.589 193.359C133.53 193.449 133.499 193.554 133.5 193.662V195ZM131.5 198V196H133.5V198H131.5Z" fill="#1686ED"/>
<path fill-rule="evenodd" clip-rule="evenodd" d="M154.5 185V193C154.5 193.6 155 194 155.5 194H157.5V196H155.5C153.8 196 152.5 194.7 152.5 193V185C152.5 183.3 153.8 182 155.5 182H163.5C165.2 182 166.5 183.3 166.5 185V187H164.5V185C164.5 184.4 164.1 184 163.5 184H155.5C154.9 184 154.5 184.4 154.5 185ZM161.5 188H169.5C171.2 188 172.5 189.3 172.5 191V199C172.5 200.7 171.2 202 169.5 202H161.5C159.8 202 158.5 200.7 158.5 199V191C158.5 189.3 159.8 188 161.5 188ZM166.5 196H168.5V194H166.5V192H164.5V194H162.5V196H164.5V198H166.5V196Z" fill="#1686ED"/>
<path fill-rule="evenodd" clip-rule="evenodd" d="M7.50195 212H9.50195V214H15.502V212H17.502V214H19.502C20.6065 214 21.502 214.895 21.502 216V230C21.502 231.105 20.6065 232 19.502 232H5.50195C4.39738 232 3.50195 231.105 3.50195 230V221H21.498V219H3.50195V216C3.50195 214.895 4.39738 214 5.50195 214H7.50195V212ZM3.50195 219V221H3.49805V219H3.50195Z" fill="#1686ED"/>
<path fill-rule="evenodd" clip-rule="evenodd" d="M35.5 213H37.5V215.171C38.6652 215.583 39.5 216.694 39.5 218C39.5 219.306 38.6652 220.417 37.5 220.829V231H35.5V220.829C34.3348 220.417 33.5 219.306 33.5 218C33.5 216.694 34.3348 215.583 35.5 215.171V213ZM43.5 213H41.5V225.171C40.3348 225.583 39.5 226.694 39.5 228C39.5 229.657 40.8431 231 42.5 231C44.1569 231 45.5 229.657 45.5 228C45.5 226.694 44.6652 225.583 43.5 225.171V213ZM47.5 213H49.5V218.171C50.6652 218.583 51.5 219.694 51.5 221C51.5 222.306 50.6652 223.417 49.5 223.829V231H47.5V223.829C46.3348 223.417 45.5 222.306 45.5 221C45.5 219.694 46.3348 218.583 47.5 218.171V213Z" fill="#1686ED"/>
<path fill-rule="evenodd" clip-rule="evenodd" d="M72.5 232C78.0228 232 82.5 227.523 82.5 222C82.5 216.477 78.0228 212 72.5 212C66.9772 212 62.5 216.477 62.5 222C62.5 227.523 66.9772 232 72.5 232ZM71.5 217V221.5C71.5 222.13 71.7964 222.722 72.3 223.1L75.9 225.8L77.1 224.2L73.5 221.5V217H71.5Z" fill="#1686ED"/>
<path d="M110.8 220.218L95.8995 213.118C94.2995 212.318 92.5995 213.918 93.1995 215.618L94.8995 220.518L99.5995 221.518C100.5 221.718 100.5 222.318 99.5995 222.518L94.8995 223.518L93.1995 228.418C92.5995 230.118 94.2995 231.618 95.8995 230.918L110.8 223.818C112.3 223.118 112.3 220.918 110.8 220.218Z" fill="#1686ED"/>
<path fill-rule="evenodd" clip-rule="evenodd" d="M122.823 220.736C124.691 217.32 128.324 215 132.5 215C136.676 215 140.309 217.32 142.177 220.736C142.608 221.524 142.608 222.476 142.177 223.264C140.309 226.68 136.676 229 132.5 229C128.324 229 124.691 226.68 122.823 223.264C122.392 222.476 122.392 221.524 122.823 220.736ZM130.5 222C130.5 220.895 131.396 220 132.5 220C133.605 220 134.5 220.895 134.5 222C134.5 223.105 133.605 224 132.5 224C131.396 224 130.5 223.105 130.5 222ZM132.5 218C130.291 218 128.5 219.791 128.5 222C128.5 224.209 130.291 226 132.5 226C134.71 226 136.5 224.209 136.5 222C136.5 219.791 134.71 218 132.5 218Z" fill="#1686ED"/>
<path fill-rule="evenodd" clip-rule="evenodd" d="M155.708 230.207C155.318 230.598 154.684 230.598 154.294 230.207C153.903 229.817 153.903 229.183 154.294 228.793L156.119 226.968C156.118 226.968 156.118 226.968 156.118 226.968L159.055 224.031C159.055 224.032 159.055 224.032 159.055 224.032L160.569 222.518C160.525 222.353 160.501 222.179 160.501 222C160.501 220.895 161.396 220 162.501 220C162.68 220 162.854 220.024 163.019 220.068L164.533 218.554C164.533 218.554 164.533 218.554 164.533 218.554L167.089 215.997C167.089 215.997 167.09 215.997 167.09 215.997L169.294 213.793C169.684 213.402 170.318 213.402 170.708 213.793C171.099 214.183 171.099 214.817 170.708 215.207L164.433 221.482C164.477 221.647 164.501 221.821 164.501 222C164.501 223.105 163.606 224 162.501 224C162.322 224 162.148 223.976 161.983 223.932L155.708 230.207ZM152.823 223.264C153.465 224.438 154.315 225.482 155.324 226.348L158.637 223.035C158.548 222.705 158.501 222.358 158.501 222C158.501 219.791 160.292 218 162.501 218C162.859 218 163.206 218.047 163.537 218.135L166.079 215.593C164.957 215.209 163.753 215 162.5 215C158.324 215 154.691 217.32 152.823 220.736C152.392 221.524 152.392 222.476 152.823 223.264ZM161.464 225.864C161.795 225.953 162.143 226 162.501 226C164.71 226 166.501 224.209 166.501 222C166.501 221.641 166.454 221.294 166.366 220.963L169.676 217.653C170.685 218.518 171.535 219.562 172.177 220.736C172.608 221.524 172.608 222.476 172.177 223.264C170.309 226.68 166.676 229 162.5 229C161.247 229 160.044 228.791 158.922 228.407L161.464 225.864Z" fill="#1686ED"/>
</svg>
